<svg width="585" height="178" xmlns="http://www.w3.org/2000/svg"><g fill="none" fill-rule="evenodd"><path d="M576.3 118.2h-.5l-45.3-45.7 45.8-5.6v51.3zm-116.1-6.8V60l58 .2-11.3 11.3-14.9-.3-31.8 40.2zm109.3 6.8H518l.2-58 11.3 11.3-.3 14.9 40.3 31.8zm-63.6-45.7l5.6 45.7h-51.3v-.4l45.7-45.3zm-39.7-71h52.3l-.3 58.7L507 48.9l.3-14.9-41.1-32.5zm39.7 46.4l-45.7 5.6V1.7l45.7 46.2zm70.4-45.3l-45.8 45.3-5.6-46.4h51.4v1.1zm-58.1 57.6l11.3-11.3 15 .3L576.3 9v51.4l-58.1-.2z" fill="#00427A" fill-rule="nonzero"/><path d="M212.3 14.8h-2.7c0-7.1-5.5-11.8-14.1-11.8s-14.3 4.2-14.3 10.4c0 5.3 4.2 8.2 14.8 10.3 11.2 2.2 17.7 5.2 17.7 13.6 0 8.4-7.3 13.9-18.5 13.9-8.7 0-18.1-4.9-18.1-15.6h2.7c0 8.9 7.8 13 15.4 13 9.8 0 15.8-4.3 15.8-11.2 0-6-3.9-8.7-15.6-11-8.9-1.7-17-4.5-17-12.8 0-7.7 6.8-12.9 16.9-12.9 11.8-.2 17 7 17 14.1zM315.9 4.3v45.9h-2.7V4.3h-16.8V1.7h36.3v2.6h-16.8zm39.5 0v45.9h-2.7V4.3H336V1.7h36.3v2.6h-16.9zm22.5 43.3h28.7v2.6h-31.4V1.8h2.7v45.8zm35.8-24.1H441V26h-27.3v21.6h30.5v2.6H411V1.8h33.1v2.6h-30.5l.1 19.1zM289.1 1.6h3.7v48.5h-3V33.4h-23.3l-13.8 16.8h-33.1V1.7h33.1v2.6h-30.5v19.3h27.3v2.5h-27.3v21.5h28.9l38-46zm-20.4 29.2h21.2V5.2l-21.2 25.6z" fill="#00427A"/><path d="M48.1 75.8H36.6c0-5.2-4.3-9.1-11.6-9.1-6.1 0-11.7 2.3-11.7 7 0 4.2 4.1 5.6 13.3 7.6C40.9 84.2 50 87.7 50 100.1c0 11.6-9.7 19-24.9 19-11.8 0-24.7-6.5-24.7-21h11.5c0 7.1 7.1 10.5 13.2 10.5 6.6 0 13.5-2.3 13.5-8.1 0-3.8-3.1-6.2-14.3-8.3C13.2 90 1.9 86.7 1.9 73.8c0-10.3 9.1-17.6 23.2-17.6 15.8-.2 23 10 23 19.6zm64.8 11.6c0 17.6-12.4 31.5-29.5 31.5S53.9 105 53.9 87.4C53.9 69.9 66.3 56 83.4 56c17.1.1 29.5 14 29.5 31.4zm-11.5 0c0-11.2-8-20.5-17.9-20.5-10 0-18 9.3-18 20.5 0 11.3 8 20.6 18 20.6 9.9 0 17.9-9.3 17.9-20.6zm64.1 6.5c0 15.4-8.1 24.9-23.3 24.9-15.2 0-23.2-9.6-23.2-24.9V57.5h11.5v36.8c0 9 3.9 13.5 11.7 13.5 7.8 0 11.7-4.5 11.7-13.5V57.5h11.6v36.4zm32.9-25.7v49.6h-11.5V68.2h-16.2V57.5h43.8v10.7h-16.1zm70 49.6H257V92.3h-25.7v25.5h-11.6V57.5h11.6v24.2H257V57.5h11.5l-.1 60.3zm53.1-42H310c0-5.2-4.3-9.1-11.7-9.1-6.1 0-11.7 2.3-11.7 7 0 4.2 4.1 5.6 13.3 7.6 14.3 2.9 23.4 6.4 23.4 18.8 0 11.6-9.7 19-24.9 19-11.8 0-24.7-6.5-24.7-21h11.5c0 7.1 7.1 10.5 13.2 10.5 6.6 0 13.5-2.3 13.5-8.1 0-3.8-3.1-6.2-14.3-8.3-11.1-2.2-22.4-5.5-22.4-18.4 0-10.3 9.1-17.6 23.2-17.6 15.9-.2 23.1 10 23.1 19.6zm18 42H328V57.5h11.5v60.3zm29.2 0h-22.3V57.5h22.3c16.8 0 27.2 11.6 27.2 30.2 0 18.4-10.7 30.1-27.2 30.1zm0-49.6h-10.9v39h10.9c13.6 0 15.7-12.3 15.7-19.6.1-8.9-2.7-19.4-15.7-19.4zm75.9 49.6h-44.7V57.5H444v10.7h-32.6v12.9h27.8v10.7h-27.8v15.4h33.2v10.6z" fill="#2086A8" fill-rule="nonzero"/><path d="M30.8 161.6c0 .6.1 1.3.2 2.1s.3 1.4.5 1.9h-4c-.2-.4-.3-.9-.4-1.5-.1-.6-.2-1.2-.2-2v-4.5c0-1.6-.4-2.8-1.3-3.6-.8-.8-2.2-1.2-4.1-1.2H10.8v12.9h-4V133h14.4c1.7 0 3.1.2 4.5.7 1.3.5 2.4 1.2 3.3 2 .9.9 1.6 1.9 2.1 3.1.5 1.2.7 2.6.7 4 0 1.8-.4 3.3-1.2 4.7-.8 1.4-1.9 2.4-3.3 3.3 2.3 1.3 3.4 3.6 3.4 6.9v3.9h.1zm-9.4-12.8c1.9 0 3.5-.5 4.7-1.6 1.2-1.1 1.7-2.5 1.7-4.4 0-2.1-.6-3.7-1.8-4.6-1.2-1-2.8-1.4-4.8-1.4H10.7v12.1h10.7v-.1zm38.3 9.2c-.8 2.6-2.3 4.6-4.2 6-2 1.4-4.4 2.1-7.2 2.1-1.8 0-3.4-.3-4.9-1-1.5-.7-2.8-1.6-3.9-2.7s-2-2.5-2.6-4c-.6-1.5-1-3.2-1-5 0-1.8.3-3.4 1-5 .6-1.6 1.5-2.9 2.6-4s2.4-2.1 3.9-2.7c1.5-.7 3.1-1 4.7-1s3.1.3 4.6.9c1.5.6 2.8 1.5 3.9 2.7 1.1 1.2 2.1 2.6 2.7 4.3.7 1.7 1 3.6 1 5.8H39.9c.1 1.3.4 2.4 1 3.4s1.2 1.8 1.9 2.5c.8.7 1.6 1.2 2.6 1.6.9.4 1.9.5 2.9.5 1.7 0 3.2-.4 4.4-1.2 1.2-.8 2.1-1.9 2.8-3.3h4.2v.1zm-3.8-7.1c-.3-1-.6-1.9-1.2-2.7-.5-.8-1.1-1.5-1.8-2.1-.7-.6-1.4-1-2.3-1.3-.8-.3-1.7-.5-2.6-.5-.8 0-1.7.1-2.5.4-.8.3-1.6.7-2.3 1.3-.7.6-1.3 1.3-1.9 2.1-.5.8-.9 1.7-1.2 2.8h15.8zm31.8 13.5c0 1.9-.3 3.7-.9 5.3-.6 1.6-1.4 3-2.5 4.1-1.1 1.1-2.4 2-3.9 2.7-1.5.6-3.2.9-5.1.9-2.9 0-5.4-.7-7.4-2.1-2.1-1.4-3.4-3.4-4-5.9h4.2c.4.9.9 1.6 1.6 2.2.6.5 1.3 1 2 1.2.7.3 1.4.5 2 .6.7.1 1.2.1 1.6.1 1.5 0 2.8-.3 3.9-.8s2-1.3 2.6-2.1c.7-.9 1.2-1.8 1.5-2.9.3-1.1.4-2.2.4-3.3v-2.5c-.9 1.2-2 2.2-3.5 3-1.4.8-3 1.2-4.8 1.2-1.8 0-3.4-.3-4.8-1-1.5-.7-2.7-1.6-3.8-2.7-1.1-1.1-1.9-2.5-2.5-4-.6-1.5-.9-3.2-.9-4.9 0-1.8.3-3.4.9-5 .6-1.6 1.5-2.9 2.5-4s2.4-2.1 3.8-2.7c1.5-.7 3.1-1 4.8-1 1.8 0 3.4.4 4.9 1.3 1.5.9 2.6 1.9 3.5 3.1v-3.9h3.9v23.1zm-4-10.9c0-1.3-.2-2.4-.7-3.5-.4-1.1-1-2.1-1.8-2.9-.8-.8-1.6-1.5-2.6-2s-2-.7-3.2-.7c-1.2 0-2.2.2-3.2.7-1 .5-1.9 1.1-2.6 2-.7.8-1.3 1.8-1.7 2.9-.4 1.1-.6 2.3-.6 3.5 0 1.2.2 2.4.6 3.5.4 1.1 1 2.1 1.7 2.9.7.8 1.6 1.5 2.6 1.9 1 .5 2.1.7 3.2.7s2.2-.2 3.2-.7c1-.5 1.9-1.1 2.6-1.9.8-.8 1.3-1.8 1.8-2.9.5-1.1.7-2.3.7-3.5zm14.6-15.8h-4V133h4v4.7zm0 27.9h-4v-24.2h4v24.2zm17.3-24.9c1.7 0 3.3.3 4.8 1s2.8 1.6 3.9 2.8c1.1 1.2 1.9 2.5 2.6 4.1.6 1.6.9 3.2.9 5 0 1.8-.3 3.4-.9 4.9-.6 1.5-1.5 2.9-2.6 4s-2.4 2-3.9 2.7c-1.5.7-3.1 1-4.8 1-1.7 0-3.3-.3-4.8-1s-2.8-1.6-3.9-2.7-2-2.5-2.6-4c-.6-1.5-.9-3.2-.9-4.9 0-1.8.3-3.4.9-5 .6-1.6 1.5-2.9 2.6-4.1 1.1-1.2 2.4-2.1 3.9-2.8 1.4-.6 3-1 4.8-1zm-.1 21.8c1.1 0 2.2-.2 3.2-.7 1-.5 1.9-1.1 2.6-1.9.8-.8 1.3-1.7 1.8-2.8.5-1.1.6-2.3.6-3.5 0-1.3-.2-2.4-.6-3.5-.4-1.1-1-2.1-1.8-2.9-.8-.8-1.6-1.5-2.6-2s-2.1-.7-3.2-.7-2.2.2-3.2.7c-1 .5-1.9 1.1-2.6 2-.7.9-1.3 1.8-1.7 2.9-.4 1.1-.6 2.3-.6 3.5 0 1.2.2 2.4.6 3.5.4 1.1 1 2 1.7 2.8.7.8 1.6 1.4 2.6 1.9 1 .4 2.1.7 3.2.7zm37.6 3.1h-4v-14.7c0-1.9-.5-3.4-1.5-4.6-1-1.2-2.5-1.8-4.4-1.8-.9 0-1.7.2-2.5.5s-1.5.8-2 1.3c-.6.6-1 1.2-1.3 2-.3.8-.5 1.6-.5 2.5v14.8h-4v-24.2h3.9v2.6c.8-1 1.8-1.8 3-2.4 1.2-.6 2.5-.9 4-.9s2.8.3 3.9.8c1.2.5 2.1 1.2 2.9 2.1.8.9 1.4 2 1.8 3.2.4 1.3.6 2.6.6 4.1v14.7h.1zm23.4 0c-.2-.3-.3-.8-.4-1.2-.1-.5-.2-1-.2-1.6-.9 1.1-2 1.9-3.4 2.5-1.4.6-3 .9-4.9.9-1.3 0-2.5-.1-3.6-.4-1.1-.3-2.1-.7-3-1.3-.9-.6-1.6-1.4-2.1-2.3-.5-.9-.8-2.1-.8-3.4 0-2.5.9-4.4 2.6-5.5 1.7-1.2 4.2-1.9 7.3-2 1.5-.1 2.7-.2 3.7-.4s1.8-.4 2.4-.7c.6-.3 1-.6 1.3-1 .3-.4.4-.8.4-1.3 0-1-.5-1.8-1.4-2.4-.9-.6-2.4-1-4.5-1-.6 0-1.3.1-2 .2s-1.4.3-2 .7c-.6.3-1.1.8-1.6 1.3-.4.6-.7 1.3-.8 2.2h-4.1c.2-2.4 1.2-4.4 3-5.8 1.8-1.4 4.3-2.2 7.5-2.2 3.3 0 5.7.7 7.3 2.1 1.6 1.4 2.4 3.2 2.4 5.5v13.3c0 .6.1 1.3.2 2.1s.3 1.4.5 1.9h-3.8v-.2zm-.7-13.1c-.8.7-1.9 1.2-3.2 1.4-1.3.2-2.7.4-4.1.5-1.3.1-2.4.3-3.2.5-.8.3-1.5.6-2 .9-.5.3-.8.8-1 1.3-.2.5-.3 1-.3 1.5 0 .7.1 1.2.4 1.7.3.5.7.9 1.2 1.2.5.3 1.1.5 1.8.7.7.1 1.4.2 2.2.2 1 0 2-.1 3-.4 1-.2 1.8-.6 2.6-1.1.7-.5 1.4-1.1 1.8-1.9.5-.8.7-1.7.7-2.8v-3.7h.1zm14.8 13.1h-4v-35h4v35zm32.4-28.9v28.8h-4v-28.8h-10.2v-3.9h24.5v3.9H223zm24.9 4c1.7 0 3.3.3 4.8 1s2.8 1.6 3.9 2.8c1.1 1.2 1.9 2.5 2.6 4.1.6 1.6.9 3.2.9 5 0 1.8-.3 3.4-.9 4.9-.6 1.5-1.5 2.9-2.6 4s-2.4 2-3.9 2.7c-1.5.7-3.1 1-4.8 1-1.7 0-3.3-.3-4.8-1s-2.8-1.6-3.9-2.7-2-2.5-2.6-4c-.6-1.5-.9-3.2-.9-4.9 0-1.8.3-3.4.9-5 .6-1.6 1.5-2.9 2.6-4.1 1.1-1.2 2.4-2.1 3.9-2.8 1.4-.6 3-1 4.8-1zm-.1 21.8c1.1 0 2.2-.2 3.2-.7 1-.5 1.9-1.1 2.6-1.9.8-.8 1.3-1.7 1.8-2.8.5-1.1.6-2.3.6-3.5 0-1.3-.2-2.4-.6-3.5-.4-1.1-1-2.1-1.8-2.9-.8-.8-1.6-1.5-2.6-2s-2.1-.7-3.2-.7-2.2.2-3.2.7c-1 .5-1.9 1.1-2.6 2-.7.9-1.3 1.8-1.7 2.9-.4 1.1-.6 2.3-.6 3.5 0 1.2.2 2.4.6 3.5.4 1.1 1 2 1.7 2.8.7.8 1.6 1.4 2.6 1.9 1.1.4 2.1.7 3.2.7zm37.5 3.1h-3.9V163c-.8 1-1.8 1.8-3 2.3-1.2.6-2.5.8-4 .8s-2.8-.3-3.9-.8c-1.2-.5-2.1-1.2-2.9-2.1-.8-.9-1.4-2-1.8-3.2-.4-1.2-.6-2.6-.6-4.1v-14.6h4v14.8c0 1.9.5 3.5 1.5 4.7 1 1.2 2.5 1.7 4.4 1.7.9 0 1.7-.2 2.5-.5s1.4-.8 2-1.3c.6-.6 1-1.2 1.3-2 .3-.8.5-1.6.5-2.5v-14.9h4v24.3h-.1zm18.6-20.9c-1-.1-2 0-3 .3-.9.3-1.8.7-2.5 1.2-.7.6-1.3 1.3-1.7 2.2-.4.9-.6 1.9-.6 3.1v14h-4v-24.2h3.9v2.7c.5-.7 1-1.2 1.6-1.7.6-.5 1.3-.8 2-1.1.7-.3 1.4-.4 2.2-.5.7-.1 1.4-.1 2.1 0v4zm8.5-7h-4V133h4v4.7zm0 27.9h-4v-24.2h4v24.2zm25.7-7.3c0 1.2-.2 2.3-.7 3.3-.5 1-1.2 1.8-2 2.5s-1.9 1.2-3.1 1.6c-1.2.4-2.6.6-4 .6-1.5 0-2.8-.2-4.1-.6-1.3-.4-2.3-.9-3.3-1.6-1-.7-1.7-1.6-2.3-2.6-.6-1-1-2.2-1.1-3.5h4c.3 1.4 1 2.5 2.3 3.3 1.3.8 2.8 1.2 4.5 1.2 1.9 0 3.4-.4 4.4-1.2 1.1-.8 1.6-1.7 1.6-2.8 0-.4-.1-.8-.2-1.2-.1-.4-.4-.7-.9-1-.5-.3-1.1-.6-2-.9-.9-.3-2.1-.5-3.5-.7-1.5-.2-2.8-.5-3.9-.8-1.2-.3-2.1-.7-3-1.2-.8-.5-1.4-1.2-1.9-2-.4-.8-.7-1.7-.7-2.9 0-.9.2-1.7.6-2.6.4-.8 1-1.6 1.7-2.3.7-.7 1.8-1.2 3-1.7 1.2-.4 2.6-.6 4.2-.6 2.8 0 5.1.7 6.9 2 1.8 1.3 2.8 3.2 3 5.6h-4c-.3-1.3-.9-2.3-2-2.9-1.1-.6-2.3-1-3.8-1-1.6 0-2.9.3-3.9 1s-1.6 1.5-1.6 2.4c0 .4.1.8.3 1.1.2.3.5.6 1 .8.5.2 1.1.4 1.9.6.8.2 1.8.4 3 .6 1.3.2 2.6.5 3.8.8 1.2.3 2.2.7 3.1 1.2.9.5 1.6 1.2 2.1 2.1.3.9.6 2 .6 3.4zm39.2 7.3h-4v-15.1c0-1.9-.4-3.4-1.3-4.4-.9-1-2.3-1.6-4.1-1.6-.8 0-1.6.2-2.3.5-.7.3-1.3.8-1.8 1.3-.5.6-.9 1.2-1.2 2-.3.8-.4 1.6-.4 2.5v14.8h-4v-15.1c0-1.9-.5-3.4-1.4-4.4-.9-1-2.3-1.6-4.1-1.6-.8 0-1.6.2-2.3.5-.7.3-1.3.8-1.8 1.3-.5.6-.9 1.2-1.2 2-.3.8-.4 1.6-.4 2.5v14.8h-4v-24.2h3.9v2.6c.8-1 1.7-1.8 2.8-2.4 1.1-.6 2.3-.9 3.7-.9 1.7 0 3.2.4 4.5 1.1 1.3.7 2.3 1.7 3 3.1.8-1.3 1.8-2.3 3-3 1.3-.8 2.8-1.1 4.5-1.1 2.8 0 5 .9 6.6 2.6 1.6 1.7 2.4 4.2 2.4 7.2v15h-.1zm25.2-9.5l-3.5 9.5h-4.3L407 133h4.5l12.1 32.6h-4.5l-3.4-9.5h-13.2zm6.7-18.3l-5.3 14.5h10.5l-5.2-14.5zm38.2 27.8h-3.9V163c-.8 1-1.8 1.8-3 2.3-1.2.6-2.5.8-4 .8s-2.8-.3-3.9-.8c-1.2-.5-2.1-1.2-2.9-2.1-.8-.9-1.4-2-1.8-3.2-.4-1.2-.6-2.6-.6-4.1v-14.6h4v14.8c0 1.9.5 3.5 1.5 4.7 1 1.2 2.5 1.7 4.4 1.7.9 0 1.7-.2 2.5-.5s1.4-.8 2-1.3c.6-.6 1-1.2 1.3-2 .3-.8.5-1.6.5-2.5v-14.9h4v24.3h-.1zm17.1 0c-1.4.2-2.7.1-3.9-.2-1.2-.3-2.2-.9-3-1.6-.8-.8-1.5-1.7-2-2.9s-.7-2.5-.7-4.1v-11.6h-3.3v-3.9h3.3v-5.2h4v5.2h5.5v3.9h-5.5v11.6c0 1.1.1 1.9.4 2.6.3.7.7 1.2 1.2 1.6.5.4 1.1.7 1.8.8.7.1 1.4.2 2.1.1v3.7h.1zm24.7 0h-4v-14.7c0-1.9-.5-3.4-1.5-4.6-1-1.2-2.5-1.8-4.4-1.8-.9 0-1.7.2-2.5.5s-1.5.8-2 1.3c-.6.6-1 1.2-1.3 2-.3.8-.5 1.6-.5 2.5v14.8h-4v-35h4v13.2c.8-.9 1.8-1.7 3-2.2 1.2-.5 2.5-.8 3.9-.8 1.5 0 2.8.3 3.9.8 1.2.5 2.1 1.2 2.9 2.1.8.9 1.4 2 1.8 3.2.4 1.3.6 2.6.6 4.1v14.6h.1zm17.2-24.9c1.7 0 3.3.3 4.8 1s2.8 1.6 3.9 2.8c1.1 1.2 1.9 2.5 2.6 4.1.7 1.6.9 3.2.9 5 0 1.8-.3 3.4-.9 4.9-.6 1.5-1.5 2.9-2.6 4s-2.4 2-3.9 2.7c-1.5.7-3.1 1-4.8 1-1.7 0-3.3-.3-4.8-1s-2.8-1.6-3.9-2.7-2-2.5-2.6-4c-.6-1.5-.9-3.2-.9-4.9 0-1.8.3-3.4.9-5 .6-1.6 1.5-2.9 2.6-4.1 1.1-1.2 2.4-2.1 3.9-2.8 1.4-.6 3-1 4.8-1zm-.1 21.8c1.1 0 2.2-.2 3.2-.7 1-.5 1.9-1.1 2.6-1.9.8-.8 1.3-1.7 1.8-2.8.5-1.1.6-2.3.6-3.5 0-1.3-.2-2.4-.6-3.5-.4-1.1-1-2.1-1.8-2.9-.8-.8-1.6-1.5-2.6-2s-2-.7-3.2-.7c-1.1 0-2.2.2-3.2.7-1 .5-1.9 1.1-2.6 2-.7.8-1.3 1.8-1.7 2.9-.4 1.1-.6 2.3-.6 3.5 0 1.2.2 2.4.6 3.5.4 1.1 1 2 1.7 2.8.7.8 1.6 1.4 2.6 1.9 1 .4 2.1.7 3.2.7zm29.1-17.8c-1-.1-2 0-3 .3-.9.3-1.8.7-2.5 1.2-.7.6-1.3 1.3-1.7 2.2-.4.9-.6 1.9-.6 3.1v14h-4v-24.2h3.9v2.7c.5-.7 1-1.2 1.6-1.7.6-.5 1.3-.8 2-1.1.7-.3 1.4-.4 2.2-.5.7-.1 1.4-.1 2.1 0v4zm8.5-7h-4V133h4v4.7zm0 27.9h-4v-24.2h4v24.2zm17.2 0c-1.4.2-2.7.1-3.9-.2-1.2-.3-2.2-.9-3-1.6-.8-.8-1.5-1.7-2-2.9s-.7-2.5-.7-4.1v-11.6h-3.3v-3.9h3.3v-5.2h4v5.2h5.5v3.9h-5.5v11.6c0 1.1.1 1.9.4 2.6.3.7.7 1.2 1.2 1.6.5.4 1.1.7 1.8.8.7.1 1.4.2 2.1.1v3.7h.1zm13.2 4.6c-.8 2.3-2 3.9-3.4 4.8-1.4.9-3.4 1.3-5.8 1v-3.7c.8.1 1.5 0 2-.1.6-.1 1.1-.3 1.5-.6.4-.3.8-.7 1.1-1.1.3-.5.6-1.1.8-1.8l1.3-3.4-9.3-24.1h4.3l7 19.3 6.9-19.3h4.3l-10.7 29z" fill="#00427A" fill-rule="nonzero"/></g></svg>
