<svg xmlns="http://www.w3.org/2000/svg" viewBox="0 0 450.33 428.27"><title>seattle-logo</title><path d="M842.76,339.41q9.95,18.45,20.12,36.78a3.5,3.5,0,0,1,0,3.9c-7.16,12.74-14.23,25.53-21.32,38.31,7.06,13,14.09,25.94,21.23,38.86a3.87,3.87,0,0,1,0,4.34c-7.11,12.66-14.12,25.37-21.17,38.07l20.77,0.12c1,0,1.9.08,2.85,0.12h0a0.67,0.67,0,0,1,.47,0q0-155.76,0-311.52c0-1.64-.32-2-2-2q-223.2.07-446.4,0c-1.64,0-2,.32-2,2q0.08,74.4,0,148.8,211.71,0,423.42,0A3.74,3.74,0,0,1,842.76,339.41Zm-30-118.71c11.42,0,22.85,0,34.27,0,0.44,0,1.11-.23,1.27.33,0.24,0.85-.63,1.21-1.1,1.68q-14.52,14.45-29.08,28.85c-0.84.83-1.74,1.59-2.9,2.65-0.56-4.59-1.09-8.85-1.6-13.11-0.75-6.25-1.46-12.51-2.26-18.76C811.18,221.11,811.41,220.69,812.75,220.69Zm-48.64,1,33.06,32-0.3.7c-4.24.54-8.48,1.09-12.72,1.6-6.17.74-12.36,1.44-18.53,2.2-0.88.11-1.53,0.31-1.53-1C764.13,245.28,764.12,233.34,764.12,221.72Zm-35.68,16.84c0-5.28.06-10.56,0-15.83,0-1.5.41-1.87,1.87-1.85,6.8,0.08,13.6,0,20.39.06,0.66,0,1.77-.51,1.79.86,0,1.52-1.2,1-1.94,1-6,0-12,.08-18,0-1.64,0-2.23.38-2.16,2.1,0.14,3.27.14,6.56,0,9.83-0.08,1.77.57,2.11,2.18,2.09,5.2-.09,10.4-0.06,15.59,0,0.71,0,2-.61,2,0.9,0,1.29-1.21.74-1.88,0.75-5.28,0-10.56.08-15.83,0-1.55,0-2.07.39-2,2,0.12,3.84.13,7.68,0,11.51-0.06,1.74.32,2.32,2.19,2.28,6-.13,12-0.07,18,0,0.69,0,1.94-.65,1.93.94s-1.25.91-1.94,0.92c-6.72.05-13.44,0-20.15,0.07-1.55,0-2-.38-2-2C728.5,249,728.44,243.76,728.44,238.56Zm-138.8-15.72c0-1.61.48-2,2-2,6.72,0.08,13.44,0,20.15.06,0.71,0,2-.6,1.89,1s-1.31.86-2,.86c-5.84,0-11.68.15-17.51,0-2.23-.07-2.65.66-2.55,2.67,0.17,3.11.13,6.24,0,9.35-0.06,1.55.36,2.06,2,2,5.28-.1,10.56-0.06,15.83,0,0.67,0,1.82-.55,1.9.72,0.1,1.54-1.22.92-1.93,0.92-5.2.05-10.4,0.09-15.59,0-1.59,0-2.26.27-2.19,2.05,0.14,4,.1,8,0,12,0,1.36.39,1.74,1.74,1.72q8.88-.1,17.75,0a2.8,2.8,0,0,0,2.4-1.22q12.64-15.37,25.31-30.72a5.1,5.1,0,0,1,1.32-1.35c1.54-.82,2.7-0.05,2.7,1.77,0,5.2,0,10.4,0,15.59s0,10.56,0,15.83c0,0.84.26,1.84-1.18,1.83s-1-1.15-1-1.89c-0.05-2.88-.07-5.76,0-8.64,0-1.13-.3-1.53-1.47-1.51q-7.08.09-14.15,0a2.76,2.76,0,0,0-2.36,1.29c-2.61,3.23-5.3,6.41-7.89,9.66a3,3,0,0,1-2.62,1.27c-6.88-.06-13.76-0.07-20.63,0-1.48,0-1.87-.37-1.86-1.85Q589.73,238.55,589.63,222.84Zm-29.92,22.55c0.58,0,1.15,0,1.2.81,0.25,4,2.62,6.48,6.19,7.69a15.15,15.15,0,0,0,12.72-1,6.84,6.84,0,0,0,3.61-6.79c-0.16-2.84-1.89-4.4-4.32-5.48-3.24-1.45-6.76-1.8-10.14-2.69a19.33,19.33,0,0,1-5.33-2.07,8,8,0,0,1-1.2-12.71c4.46-4.15,14.11-4.26,18.67-.18a9.33,9.33,0,0,1,3.07,5.8c0.09,0.62.33,1.34-.61,1.52-0.76.15-1-.23-1.27-1-2.39-7.34-11.71-10.05-17.84-5.24-3.91,3.07-3.4,8.22,1,10.54,2.95,1.55,6.22,1.94,9.39,2.7a26.71,26.71,0,0,1,5.66,1.86,8.56,8.56,0,0,1,1.68,14.46c-2.45,2-5.84,3.08-10.09,3.09-6.53,0-11.42-3.12-12.87-8.28a12.2,12.2,0,0,1-.31-1.88C558.88,246,558.86,245.37,559.71,245.39Zm-99.06,57.37a22.86,22.86,0,0,1-23.31.17c-4.12-2.24-6.27-6-6.83-10.67-0.17-1.4.22-1.84,1.57-1.68a11.76,11.76,0,0,0,2.4,0c2.44-.22,4.56-0.32,5.14,3,0.32,1.81,2.21,2.88,3.94,3.61a13.63,13.63,0,0,0,11.6-.46,4.7,4.7,0,0,0,3-4.54c-0.06-2.05-1.51-3.1-3.16-3.84-3.38-1.52-7.07-1.9-10.61-2.81-1.16-.3-2.32-0.6-3.44-1-6.7-2.35-9.8-6.42-9.35-12.22s4.51-10.12,11-11.53a25.83,25.83,0,0,1,5.71-.56c7.85,0,13.38,3.16,15.78,9,2,4.78,1.59,5.35-3.48,5.35-0.8,0-1.6,0-2.4,0a1.23,1.23,0,0,1-1.55-1.25,6.05,6.05,0,0,0-4.74-4.86,13,13,0,0,0-8.9.5c-1.68.74-3,1.82-3.06,3.89s1.39,3.07,3.09,3.77c3.57,1.48,7.44,1.77,11.11,2.85,1.6,0.47,3.22.93,4.77,1.56,4.12,1.68,7,4.46,7.45,9.13C466.91,295.52,465.41,300.08,460.66,302.76Zm46.41-4.58c-5.92,7.13-13.69,9.29-22.41,6.76s-13.61-9-14.9-17.86c-1.41-9.64,1.36-17.87,9.76-23.55a18.6,18.6,0,0,1,11.32-3.18A21.26,21.26,0,0,1,512,280C512.62,286.71,511.42,292.93,507.07,298.18Zm43.27-8.94c-0.17,8.46-4.43,14.26-11.74,16a20.76,20.76,0,0,1-12-.53c-5.83-2.06-9.6-7.53-9.82-14.55-0.14-4.55,0-9.11,0-13.67h-0.09c0-4.4.09-8.8,0-13.19-0.05-1.73.49-2.21,2.15-2.06,2,0.18,4.63-.63,5.78.37,1.35,1.18.42,3.9,0.43,5.94,0.06,7.11-.05,14.23,0,21.35,0.09,6.69,5,10.27,11.31,8.48,3.35-.94,4.95-3.31,5.42-6.58,0.72-5,.25-10.06.34-15.09q0.11-6.35,0-12.71c0-1.32.3-1.87,1.71-1.77,2.13,0.15,4.86-.62,6.25.43s0.38,3.88.39,5.93C550.42,274.85,550.48,282,550.33,289.24Zm29.86-20.13c-1.9,0-4.37-.82-5.55.34s-0.4,3.78-.42,5.74q-0.07,13.9,0,27.8c0,1.64-.39,2.29-2.11,2.14-2-.18-4.55.61-5.81-0.38s-0.39-3.74-.42-5.71c-0.08-4,0-8,0-12,0-5.11-.09-10.23,0-15.33,0-2-.31-2.89-2.57-2.68-2.45.23-4.95,0-7.42,0.08-1.27,0-1.79-.2-1.82-1.65-0.14-6.15-.19-6.15,5.93-6.15,8,0,16,0,24,0,1.61,0,2,.48,2,2C586,269.09,586,269.06,580.19,269.1Zm43.26,36c-2.16-.09-4.9.74-6.32-0.29s-0.44-4-.5-6.12c-0.11-3.52-.07-7,0-10.56,0-1.11-.28-1.54-1.46-1.52-5.2.05-10.4,0.07-15.6,0-1.6,0-1.56.86-1.56,2,0,4.88,0,9.76,0,14.64,0,1.45-.32,2-1.84,1.87-2.12-.23-4.87.88-6.19-0.49-1-1.06-.33-3.79-0.34-5.77,0-5.28,0-10.56,0-15.84,0-6.48.09-13-.05-19.44,0-2,.61-2.46,2.41-2.29s4.44-.58,5.54.39c1.31,1.14.37,3.75,0.42,5.72q0.12,4.92,0,9.84c0,1.35.4,1.81,1.77,1.79q7.56-.1,15.12,0c1.35,0,1.78-.38,1.75-1.75-0.08-4.64.05-9.28-.08-13.92,0-1.74.5-2.21,2.14-2.06a32.64,32.64,0,0,0,4.8,0c1.29-.08,1.62.43,1.61,1.66q-0.05,20.28,0,40.56C625.11,304.79,624.68,305.16,623.45,305.11Zm37.48-3.68c-4.94,4.05-10.65,4.77-16.69,4.25-5-.43-9.43-2.32-12.63-6.41a12.82,12.82,0,0,1-2.66-7.3c-0.06-1,.24-1.47,1.31-1.39,0.87,0.07,1.76,0,2.64,0,2.26,0,4.71-.71,5.11,3,0.18,1.69,2.05,2.77,3.69,3.52a13.66,13.66,0,0,0,11.81-.29,4.71,4.71,0,0,0,3-4.52c0-2.09-1.45-3.1-3.08-3.87-3-1.41-6.26-1.84-9.44-2.54a30.32,30.32,0,0,1-7.69-2.55c-3.81-2-6.08-5-6.31-9.46a11.36,11.36,0,0,1,5.85-11,19.84,19.84,0,0,1,10.81-2.62c6.93,0.06,12.75,2.14,15.82,9,2.19,4.85,1.76,5.44-3.35,5.44a16.36,16.36,0,0,0-1.92,0c-1.31.16-2.05-.19-2.26-1.68a5.14,5.14,0,0,0-2.44-3.41c-3-2.11-9.3-2-12.3.14-2.78,2-2.59,5.1.5,6.67s6.56,1.91,9.88,2.7a48.24,48.24,0,0,1,7.51,2.37C667.3,285.27,666.08,297.2,660.92,301.43Zm0.62-78.65c-1.7-.07-2.14.52-2.12,2.17,0.08,9.68.06,19.36,0,29,0,0.71.69,2-.79,2.07-1.69.11-1.06-1.29-1.07-2.08-0.05-4.88,0-9.76,0-14.64s-0.07-9.6,0-14.4c0-1.63-.33-2.26-2.08-2.17-2.87.14-5.76,0-8.64,0-0.69,0-1.51.18-1.51-1s0.87-.92,1.53-0.92q11.76,0,23.52,0c0.58,0,1.34-.24,1.41.8s-0.6,1.11-1.38,1.11C667.46,222.8,664.5,222.9,661.55,222.77Zm15.1,60.62c0,6.55-.06,13.1,0,19.65,0,1.72-.48,2.22-2.13,2.07-2-.18-4.61.62-5.78-0.38-1.37-1.17-.44-3.88-0.45-5.92,0-11.74,0-23.48-.05-35.23,0-1.62.14-2.54,2.13-2.32s4.62-.63,5.78.37c1.36,1.18.41,3.89,0.44,5.93C676.69,272.85,676.65,278.13,676.65,283.4Zm-0.85-60.6c-0.74,0-1.73.29-1.71-1s0.94-.86,1.58-0.87q11.62,0,23.25,0c0.66,0,1.55-.23,1.5,1s-0.88.93-1.57,0.93c-2.88,0-5.76.11-8.63,0-1.74-.09-2.12.54-2.09,2.17,0.1,4.87,0,9.75,0,14.62s0,9.91,0,14.86c0,0.68.43,1.68-1,1.69s-1-1-1-1.68c0-9.67-.07-19.33,0-29,0-2-.29-2.87-2.54-2.67C681.09,223,678.44,222.82,675.8,222.8Zm39.69,71.13c-3,7-8.48,10.68-16,11.09-5.42.3-10.86,0-16.29,0.1-1.43,0-1.72-.49-1.71-1.8,0.06-6.71,0-13.42,0-20.13s0-13.26,0-19.89c0-1.55.36-2.06,2-2,5.19,0.12,10.39,0,15.57.11,8.35,0.25,14.62,4.94,17.11,12.88A27.79,27.79,0,0,1,715.5,293.93Zm-11-37.8c-1.8,0-2-.61-2-2.18,0.09-5.19,0-10.39,0-15.58s0-10.39,0-15.58c0-.73-0.53-1.93,1-1.87s0.93,1.25.93,2c0,9.67.09,19.34,0,29,0,2,.58,2.35,2.4,2.32,5.51-.12,11-0.06,16.54,0,0.73,0,1.93-.51,1.83,1.05-0.09,1.37-1.16.82-1.81,0.82C717.08,256.1,710.76,256,704.45,256.13Zm42.84,49c-8,0-16-.08-24,0.05-2.23,0-3-.39-2.93-2.81,0.19-6.39.07-12.79,0.07-19.19,0-6.56.05-13.12,0-19.67,0-1.6.3-2.21,2.07-2.2q14,0.13,28.07,0c1.65,0,1.94.53,1.93,2,0,5.79,0,5.79-5.8,5.79-5.36,0-10.72.06-16.07,0-1.51,0-2,.45-1.87,1.91a38.63,38.63,0,0,1,0,5.51c-0.15,1.79.63,2.09,2.21,2.07,5.36-.08,10.72,0,16.07-0.06,1.41,0,1.93.3,1.95,1.84,0.08,6,.14,6-5.89,6-4.24,0-8.48,0-12.72,0-1.25,0-1.67.34-1.62,1.61,0.09,2.48.11,5,0,7.44-0.08,1.57.42,2,2,2,6.72-.09,13.44,0,20.15-0.08,1.73,0,2.09.49,2.07,2.13C752.89,305.09,753,305.09,747.3,305.09Zm52.66,0.3c-11.62-.06-23.24,0-34.86-0.05l-0.06.06-0.12-.07c-0.08,0-.13-0.07,0,0h0.17l32.29-33.06c1.31,10.78,2.54,21.07,3.82,31.36C801.35,304.73,801.47,305.39,800,305.39Zm8.78,0c-2.06,0-2.67-.43-2.65-2.6,0.13-13,.08-26,0.1-39h-0.05v0c-2.52,1.7-4.39,4.09-6.51,6.21a4.29,4.29,0,0,1-3.78,1.47c-1.34-.14-2.77.21-4.06-0.08-3.49-.79-5.47.83-7.49,3.5-6,7.91-12.21,15.6-18.36,23.37-0.47.59-1,1.15-1.83,2.16v-18c0-5.68.07-11.35,0-17,0-1.79.44-2.29,2.26-2.27,13.11,0.11,26.22.11,39.33,0.15-1.58-2.73-4.14-4.56-6.29-6.75a4.24,4.24,0,0,1-1.33-3.6c0.18-2.3.17-4.62,0.39-6.92,0.14-1.44-.63-2.15-1.61-2.93q-13-10.21-25.94-20.48a4.09,4.09,0,0,1-1.79-1.85h6.22c9.75,0,19.49,0,29.23,0,1.58,0,2,.45,2,2-0.15,13.33-.22,26.67-0.32,40,2.67-1.4,4.34-3.91,6.42-5.95,1.24-1.21,2.43-1.93,4.18-1.66,0.86,0.13,1.8-.15,2.63.05,4.6,1.15,7.21-1.22,9.79-4.68,6.06-8.12,12.48-16,18.78-24,0.71,0.54.38,1.23,0.38,1.8,0,11,0,21.91.07,32.86,0,2-.67,2.29-2.42,2.28-13.27-.08-26.53-0.07-39.8-0.09l-0.13.44,0,0h0v0.06c1.59,0.12,2.12,1.63,3.12,2.5,1.71,1.48,3.28,3.11,4.92,4.68a2.43,2.43,0,0,1,2,.91l23.29-2.68c2.54-.29,5.08-0.54,7.61-0.91,0.93-.14,1.28,0,1.28,1q0,17.74-.06,35.48a1.94,1.94,0,0,1-.27.65c-1.72.21-3.43-.91-5.15,0h0C831.57,305.43,820.15,305.34,808.74,305.41Z" transform="translate(-415.43 -186.43)" style="fill:#fefefe"/><path d="M865.18,581q0-35,.06-70,0-5.52,0-11h0c-1,0-1.9-.11-2.85-0.12l-20.77-.12c-1,0-1.91.14-2.86,0.14H418.35c-1,0-1.91.07-2.87,0.1V581H862.79C863.59,581,864.38,581,865.18,581Zm-391.77-48.2c-0.63,6-3.71,8.73-10.19,9.26-3.64.3-3.64,0.3-3.64,3.9,0,6.07-.09,12.14,0,18.21,0,2-1,1.94-2.37,1.87s-2.68.47-2.65-1.86c0.13-7.83,0-15.66,0-23.48,0-7.67,0-15.34,0-23,0-1.58.43-2.06,2-2,2.23,0.14,4.48,0,6.71.11,5.72,0.34,8.72,3,9.82,8.61A27.83,27.83,0,0,1,473.42,532.79Zm48.9,33.26c-3.55.17-3.55,0.22-4.23-3.28-0.12-.63-0.25-1.25-0.35-1.88-0.83-5.12-.83-5.13-6.07-5.13s-5.15,0-6.13,4.93c-0.14.7-.27,1.41-0.39,2.11-0.54,3.19-1.59,3.85-4.78,3.23-1.38-.27-0.84-1.16-0.71-1.82,1.1-5.71,2.26-11.41,3.4-17.12q2.8-14.08,5.57-28.15c0.66-3.35.61-3.24,3.8-3.25,1.39,0,1.56.71,1.76,1.68q3.91,19.7,7.82,39.39c0.51,2.58.93,5.18,1.53,7.73C523.83,565.74,523.5,566,522.32,566.06Zm49.39-10.58c-1,5.07-3.6,9-8.78,10.73a12.35,12.35,0,0,1-6.62.2c-4.77-1-5.33-2.08-4.78-8.3,1.79,1.28,3.3,2.78,5.41,3.4,4.12,1.22,7.74-.44,9.32-4.43a9.82,9.82,0,0,0-2.87-11.49c-2.55-2.16-5.39-4-8-6.08a14.4,14.4,0,0,1-2.13-20.67c3.62-4.28,11.05-5,15.46-1.6a2,2,0,0,1,.8,1.84c0,1.43,0,2.86,0,4.89-1.85-1.91-3.33-3.37-5.42-3.87-2.66-.64-5.14-0.27-7,1.85-2.32,2.61-2.65,5.7-1.68,9a10.54,10.54,0,0,0,3.94,5.3c2.65,2.05,5.45,3.92,8,6.08C571.41,545.75,572.71,550.34,571.71,555.47Zm41,10.78a12.35,12.35,0,0,1-6.38.15c-4.91-1.1-5.28-1.77-4.93-8.34,1.24,0.91,2.21,1.73,3.28,2.39,2.77,1.7,5.71,2.24,8.56.37,3-2,3.94-5.1,3.7-8.55s-2.17-5.75-4.74-7.7-5.39-3.75-7.81-5.93a14.33,14.33,0,0,1-.6-20.39,11.89,11.89,0,0,1,14.76-1.1,1.73,1.73,0,0,1,.91,1.54c0,1.56,0,3.13,0,4.68a1.46,1.46,0,0,1-1.29-.78c-3.29-3-7-3.63-10-1.63s-4.1,6.55-2.66,10.36c1,2.67,3.06,4.42,5.26,6,2.5,1.85,5.2,3.44,7.38,5.7C625.1,550.29,622,563.4,612.7,566.26Zm58.44-32.95c-0.76,5.75-3.81,8.26-10.15,8.74-3.64.28-3.64,0.28-3.64,3.9,0,6.07-.09,12.15,0,18.22,0,2.06-1.05,1.9-2.38,1.86s-2.67.41-2.63-1.88c0.12-7.83,0-15.67,0-23.5,0-7.59,0-15.19,0-22.78,0-1.6.29-2.29,2.05-2.16,2.23,0.17,4.48,0,6.71.12,5.74,0.36,8.68,3,9.8,8.64A26.94,26.94,0,0,1,671.14,533.31Zm52.52,26.09c-2.08,5.08-5.42,7.39-10.4,7.24-4.27-.13-6.93-2.61-8.69-6.18-2.37-4.83-2.92-10.07-3.08-15.37-0.2-6.56-.2-13.09,1.51-19.5a19.75,19.75,0,0,1,2.54-5.91,9.75,9.75,0,0,1,16.77.19c2.55,4,3.27,8.62,3.64,13.25,0.21,2.62,0,5.27,0,7.9C726.08,547.24,726.08,553.49,723.66,559.4Zm55.22,6.7c-2.5.18-3.8-.63-4.83-3-2.72-6.2-5.75-12.27-8.67-18.39-0.26-.55-0.58-1.08-0.87-1.62l-0.38.14c0,6.79-.13,13.59.07,20.38,0.07,2.46-1.05,2.45-2.84,2.46s-2.72,0-2.7-2.33q0.18-22.91,0-45.82c0-1.84.49-2.33,2.26-2.2,2.31,0.17,4.64,0,7,.08,6.67,0.18,10.4,3.44,11.23,10a24.05,24.05,0,0,1-.24,7.87c-0.9,4.38-3.27,7.23-7.76,8-1.74.29-1.31,1-.8,2.08,3.29,6.73,6.51,13.5,9.87,20.2C781.06,565.72,780.73,566,778.88,566.1Zm47.51-48.29c-0.13,1.34.26,2.54-2,2.5-5.39-.11-5.39,0-5.39,5.44,0,12.62-.05,25.24,0,37.86,0,2.09-.66,2.48-2.57,2.49s-2.59-.47-2.55-2.51c0.13-6.87.05-13.74,0.05-20.61s0-13.74,0-20.61c0-1.64-.39-2.35-2.11-2.15-1,.12-2.09-0.09-3.11,0-1.9.25-2.38-.48-2.39-2.35s0.55-2.24,2.29-2.2q7.78,0.18,15.57,0C826,515.68,826.56,516.11,826.4,517.81Z" transform="translate(-415.43 -186.43)" style="fill:#003f6c"/><path d="M838.77,499.81c1,0,1.91-.09,2.86-0.14,7-12.7,14.06-25.41,21.17-38.07a3.87,3.87,0,0,0,0-4.34c-7.14-12.92-14.17-25.9-21.23-38.86l-3.12,0H418.6c-1,0-2.08,0-3.12-.05v81.6c1,0,1.91-.1,2.87-0.1H838.77Zm-40.65-63.72q11.87,0.13,23.75,0c1.64,0,2,.54,2,2,0.06,5.51.1,5.51-5.3,5.51-4.32,0-8.64.05-13,0-1.47,0-1.95.44-1.9,1.91,0.1,2.87.13,5.76,0,8.63-0.08,1.66.57,2,2.07,2,5-.07,10.08.05,15.11-0.07,1.84,0,2.28.56,2.26,2.32-0.05,5,0,5-5,5-4.24,0-8.48.05-12.71,0-1.38,0-1.78.44-1.76,1.78,0.07,3.92.1,7.84,0,11.75,0,1.59.48,2,2,2,5.28-.09,10.56,0,15.83-0.07,1.84,0,2.29.6,2.28,2.35,0,5.21,0,5.21-5.12,5.21-6.88,0-13.75-.05-20.63,0-1.68,0-2.18-.49-2.16-2.16,0.08-7.76,0-15.51,0-23.27,0-7.6,0-15.19,0-22.79C796,436.59,796.42,436.07,798.11,436.09Zm-38.74,0c4.86,0.18,9.77-.29,14.55.86,7,1.68,10.83,6.2,11.23,13.08,0.41,7.07-2.86,12.08-9.57,14.64l-1.24.5,15.47,21.26c-3.31,0-6.05,0-8.8,0-1.07,0-1.38-1-1.87-1.67-4-5.69-8-11.4-12-17.08-0.47-.67-0.8-1.88-1.87-1.5-0.89.32-.42,1.41-0.43,2.15,0,5.36-.07,10.71,0,16.07,0,1.48-.28,2.08-1.94,2.09-6.08.05-6.08,0.12-6.08-5.94,0-14,0-28,0-42C756.82,436.53,757.42,436,759.38,436.09Zm-36.55-.85c14.84-.08,26.21,11.16,26.25,25.95,0,15-11,26.17-25.88,26.25-15.09.08-26.36-11-26.38-26S708,435.31,722.82,435.24Zm-85,45.88q4.56-23.49,9.16-47c0.07-.38.25-0.75,0.54-1.63l17.31,38.59,17.57-38.82c0.84,4.53,1.57,8.33,2.24,12.14,2.35,13.44,4.65,26.9,7,40.33,0.23,1.28.1,1.65-1.27,1.72-6.46.32-6.44,0.36-7.5-6-1.3-7.77-2.62-15.54-4-23.86L664.36,489l-14-31.57-0.5,0c-0.7,3.93-1.41,7.85-2.09,11.78-0.87,5-1.82,10.05-2.53,15.11-0.28,2-1.25,2.17-2.9,2.16C636.79,486.4,636.76,486.45,637.8,481.11Zm-57.56-19.9c0-7.6,0-15.19,0-22.79,0-1.69.29-2.37,2.2-2.34,7.83,0.12,15.67.09,23.51,0,1.62,0,2.21.36,2.21,2.09,0,5.45.07,5.45-5.31,5.45-4.24,0-8.48.06-12.71,0-1.47,0-1.95.43-1.9,1.9,0.1,3,.09,5.92,0,8.87,0,1.38.46,1.78,1.8,1.76,5.12-.06,10.24,0,15.35-0.06,1.65,0,2.17.42,2.16,2.12,0,5.23,0,5.23-5.22,5.23-4.08,0-8.16.07-12.23,0-1.51,0-1.9.45-1.87,1.9q0.13,5.87,0,11.75c0,1.49.47,1.9,1.92,1.88,5.28-.07,10.56,0,15.83-0.06,1.69,0,2.17.52,2.17,2.18,0,5.38.05,5.38-5.38,5.38-6.64,0-13.28-.1-19.91.05-2.2.05-2.67-.68-2.64-2.73C580.31,476.25,580.24,468.73,580.24,461.21ZM536.82,436.1c1.52-.08,1.6,1,2,1.95q6.2,15.43,12.38,30.87a1.92,1.92,0,0,0,1,1.47l10.37-25.92q1.38-3.45,2.77-6.89c0.3-.74.49-1.49,1.58-1.47,2.37,0.06,4.74,0,7.5,0l-22.41,53.75-22.41-53.76C532.23,436.13,534.53,436.22,536.82,436.1ZM488.64,485q12.1-25.55,24.17-51.11a2.31,2.31,0,0,1,.49-0.32L522.43,454c4.5,10.06,9,20.13,13.55,30.16,0.88,1.93.48,2.07-1.51,2.36-4.62.66-7.26-.9-8.47-5.47-0.6-2.26-1.2-5.24-3.06-6.27s-4.67-.34-7.06-0.35c-4,0-8,.08-12,0a2.59,2.59,0,0,0-2.84,1.89c-1.23,2.95-2.65,5.81-3.88,8.76a1.94,1.94,0,0,1-2.15,1.41c-1.76-.08-3.52-0.06-5.28,0C488.63,486.49,488,486.35,488.64,485ZM454.75,472.1a5.59,5.59,0,0,0,.94-0.19c1.48-.32,3.06-1.12,4.42-0.84,1.77,0.36.94,2.53,1.52,3.82a8.49,8.49,0,0,0,8.08,5.34,8.13,8.13,0,0,0,7.56-6,7.79,7.79,0,0,0-3.39-9c-2.46-1.69-5.31-2.57-8-3.74-3-1.31-5.94-2.85-8-5.52a12.67,12.67,0,0,1,1-16.28c6.54-6.87,19.23-5.64,24.29,2.32,0.77,1.2,1.11,2.13-.58,2.74a5.36,5.36,0,0,0-.83.48c-1.1.64-2.14,1.61-3.33,1.85-1.55.32-1.59-1.62-2.49-2.4-2.57-2.24-7.16-2.81-10.07-1a5.51,5.51,0,0,0,0,9.27c1.85,1.29,4,1.89,6.08,2.8a62.49,62.49,0,0,1,5.84,2.76c6.49,3.75,9,9.79,7.18,17.15a15.31,15.31,0,0,1-14.37,11.7c-0.48,0-1,0-1.44,0-8.08,0-14.83-5.68-15.8-13.22C453.15,472.87,453.33,472.15,454.75,472.1Z" transform="translate(-415.43 -186.43)" style="fill:#b4c329"/><path d="M838.47,418.38l3.12,0c7.09-12.78,14.16-25.57,21.32-38.31a3.5,3.5,0,0,0,0-3.9q-10.14-18.35-20.12-36.78a3.74,3.74,0,0,0-3.86-2.25q-211.71.07-423.42,0v81.12c1,0,2.08.05,3.12,0.05H838.47Zm-44.91-39.65c0-7.67,0-15.35,0-23,0-1.54.21-2.25,2-2.23,8,0.1,16,.07,24,0,1.39,0,1.93.29,2,1.83,0.08,5.57.14,5.57-5.44,5.57-4.24,0-8.47,0-12.71,0-1.35,0-2,.2-2,1.8,0.13,3,.11,5.92,0,8.87,0,1.39.42,1.76,1.76,1.74,5.2-.07,10.39,0,15.59-0.06,1.5,0,2.08.32,2.09,2,0,5.59.12,5.59-5.42,5.59-4.08,0-8.15,0-12.23,0-1.31,0-1.82.3-1.79,1.72,0.09,4,.1,8,0,12,0,1.49.41,1.89,1.88,1.87,5.35-.09,10.71,0,16.07-0.08,1.66,0,2.19.43,2.18,2.14,0,5.43.06,5.43-5.36,5.43-6.71,0-13.43-.08-20.14,0-2.08,0-2.5-.67-2.47-2.59C793.61,393.75,793.55,386.24,793.55,378.72Zm-45.35-25.24c4.54,0.29,9.12-.38,13.64.44,7.68,1.4,12,5.94,12.47,13.57,0.35,5.76-2.43,12.19-9.87,14.44a5,5,0,0,0-.94.56l7.63,10.5L779,403.8c-3.23,0-5.91,0-8.6,0-1.24,0-1.6-.93-2.12-1.67-4.1-5.82-8.16-11.66-12.25-17.48-0.43-.62-0.71-1.67-1.72-1.31s-0.41,1.26-.42,1.91c0,5.52-.09,11,0,16.56,0,1.6-.44,2-2,2-5.88,0-5.88.09-5.88-5.84,0-14.08,0-28.16,0-42.24C746,354,746.32,353.36,748.21,353.48Zm-45.37-.92c15,0,26.21,10.86,26.24,25.57,0,15.4-10.94,26.61-26,26.63-14.81,0-26.12-11.16-26.13-25.82C676.91,363.63,687.76,352.59,702.84,352.56Zm-96.21,49.38q2.93-15.15,5.92-30.28c1.41-7.19,2.81-14.39,4.35-22.29l17.46,38.89L652,349.38c1.4,7.9,2.68,15.11,3.95,22.31,1.71,9.66,3.38,19.32,5.12,29,0.57,3.15.63,3.14-2.63,3.14-5.08,0-5,0-5.81-5.1-1.27-7.94-2.67-15.85-4.55-24l-14.14,31.46-14.34-32.36-3.49,20.08q-0.74,4.24-1.46,8.49c-0.08.48-.1,1.16-0.59,1.22a26.44,26.44,0,0,1-7.15,0C606.1,403.5,606.52,402.5,606.63,401.94Zm-68.86-49.38A25.4,25.4,0,0,1,563,378.74c-0.24,15-11.43,26.11-26.24,26a25.77,25.77,0,0,1-26.13-26.68C510.88,363.1,522.32,352.33,537.77,352.56Zm-80.49,26c0-7.67,0-15.34,0-23,0-1.52.34-2.11,2-2,6.36,0.32,12.78-.62,19.08,1a23.83,23.83,0,0,1,17.87,22.73c0.27,10.37-3.65,18.27-12.77,23.42-4.76,2.69-10,3-15.3,3.18-3,.12-5.91-0.06-8.87.05-1.63.07-2-.53-2-2.06C457.32,394,457.28,386.28,457.28,378.53Z" transform="translate(-415.43 -186.43)" style="fill:#0096cd"/><path d="M865.72,581l-0.54,0c-0.8,0-1.6,0-2.4,0H415.48c0,10.48,0,21,0,31.42,0,1.76.35,2.22,2.19,2.22q223-.08,446,0a3.74,3.74,0,0,1,.72,0c1.24,0.25,1.46-.3,1.45-1.46C865.7,602.47,865.72,591.76,865.72,581Z" transform="translate(-415.43 -186.43)" style="fill:#fefefe"/><path d="M865.25,499.91h0q0,5.52,0,11,0,35-.06,70l0.54,0V499.92A0.67,0.67,0,0,0,865.25,499.91Z" transform="translate(-415.43 -186.43)" style="fill:#acb4bf"/><path d="M490.84,260.35a18.6,18.6,0,0,0-11.32,3.18c-8.4,5.69-11.17,13.91-9.76,23.55,1.29,8.83,6.14,15.31,14.9,17.86s16.49,0.37,22.41-6.76c4.36-5.25,5.55-11.47,5-18.18A21.26,21.26,0,0,0,490.84,260.35Zm7.61,34.75c-7.05,5.93-17.32,2.15-20-7.38a13,13,0,0,1-.55-4.74,14.78,14.78,0,0,1,5.58-12.13,11.41,11.41,0,0,1,15.12.3C505.59,277.15,505.53,289.15,498.45,295.1Z" transform="translate(-415.43 -186.43)" style="fill:#003f6c"/><path d="M699.08,261.38c-5.19-.16-10.38,0-15.57-0.11-1.62,0-2,.48-2,2,0.08,6.63,0,13.26,0,19.89s0,13.42,0,20.13c0,1.31.28,1.82,1.71,1.8,5.43-.08,10.88.19,16.29-0.1,7.48-.41,13-4.11,16-11.09a27.79,27.79,0,0,0,.7-19.66C713.7,266.32,707.44,261.63,699.08,261.38Zm8.74,29.5c-1.69,4.24-4.94,6.3-9.45,6.42-2.07.06-4.16-.1-6.22,0-1.62.11-2.22-.3-2.16-2.06,0.14-4.06,0-8.14,0-12.2s0.07-8.14,0-12.2c0-1.53.46-1.91,1.89-1.82,2,0.12,4,0,6,0,5.5,0.08,9.08,2.71,10.53,8A21.24,21.24,0,0,1,707.82,290.88Z" transform="translate(-415.43 -186.43)" style="fill:#003f6c"/><path d="M658.09,281.44a48.24,48.24,0,0,0-7.51-2.37c-3.32-.78-6.79-1.13-9.88-2.7s-3.29-4.64-.5-6.67c3-2.18,9.27-2.25,12.3-.14a5.14,5.14,0,0,1,2.44,3.41c0.2,1.49.94,1.83,2.26,1.68a16.36,16.36,0,0,1,1.92,0c5.11,0,5.54-.6,3.35-5.44-3.07-6.81-8.9-8.89-15.82-9a19.84,19.84,0,0,0-10.81,2.62,11.36,11.36,0,0,0-5.85,11c0.22,4.44,2.5,7.47,6.31,9.46a30.32,30.32,0,0,0,7.69,2.55c3.19,0.7,6.45,1.13,9.44,2.54,1.64,0.77,3.07,1.78,3.08,3.87a4.71,4.71,0,0,1-3,4.52,13.66,13.66,0,0,1-11.81.29c-1.64-.75-3.51-1.83-3.69-3.52-0.4-3.69-2.85-3-5.11-3-0.88,0-1.76.06-2.64,0-1.07-.08-1.37.36-1.31,1.39a12.82,12.82,0,0,0,2.66,7.3c3.2,4.09,7.59,6,12.63,6.41,6,0.52,11.74-.2,16.69-4.25C666.08,297.2,667.3,285.27,658.09,281.44Z" transform="translate(-415.43 -186.43)" style="fill:#003f6c"/><path d="M458.93,281.12c-1.55-.63-3.16-1.08-4.77-1.56-3.67-1.08-7.54-1.37-11.11-2.85-1.7-.71-3.15-1.61-3.09-3.77s1.38-3.15,3.06-3.89a13,13,0,0,1,8.9-.5,6.05,6.05,0,0,1,4.74,4.86,1.23,1.23,0,0,0,1.55,1.25c0.8-.05,1.6,0,2.4,0,5.08,0,5.44-.57,3.48-5.35-2.4-5.86-7.93-9-15.78-9a25.83,25.83,0,0,0-5.71.56c-6.52,1.41-10.57,5.62-11,11.53s2.65,9.87,9.35,12.22c1.13,0.39,2.29.7,3.44,1,3.55,0.91,7.23,1.29,10.61,2.81,1.66,0.74,3.1,1.79,3.16,3.84a4.7,4.7,0,0,1-3,4.54,13.63,13.63,0,0,1-11.6.46c-1.73-.73-3.62-1.8-3.94-3.61-0.59-3.35-2.7-3.25-5.14-3a11.76,11.76,0,0,1-2.4,0c-1.35-.16-1.74.28-1.57,1.68,0.56,4.69,2.71,8.43,6.83,10.67a22.86,22.86,0,0,0,23.31-.17c4.75-2.67,6.25-7.24,5.73-12.51C465.91,285.58,463.05,282.79,458.93,281.12Z" transform="translate(-415.43 -186.43)" style="fill:#003f6c"/><path d="M750.89,297.27c-6.72.11-13.44,0-20.15,0.08-1.59,0-2.09-.44-2-2,0.12-2.47.1-5,0-7.44,0-1.27.37-1.63,1.62-1.61,4.24,0.07,8.48,0,12.72,0,6,0,6,0,5.89-6,0-1.54-.54-1.86-1.95-1.84-5.36.07-10.72,0-16.07,0.06-1.58,0-2.36-.28-2.21-2.07a38.63,38.63,0,0,0,0-5.51c-0.09-1.45.36-1.93,1.87-1.91,5.36,0.09,10.72,0,16.07,0,5.84,0,5.79,0,5.8-5.79,0-1.49-.29-2-1.93-2q-14,.13-28.07,0c-1.77,0-2.09.6-2.07,2.2,0.08,6.56,0,13.12,0,19.67,0,6.4.13,12.8-.07,19.19-0.07,2.42.71,2.85,2.93,2.81,8-.14,16-0.05,24-0.05,5.67,0,5.6,0,5.67-5.69C753,297.75,752.62,297.24,750.89,297.27Z" transform="translate(-415.43 -186.43)" style="fill:#003f6c"/><path d="M625.1,262.95c0-1.23-.33-1.73-1.61-1.66a32.64,32.64,0,0,1-4.8,0c-1.64-.15-2.19.33-2.14,2.06,0.13,4.64,0,9.28.08,13.92,0,1.37-.4,1.77-1.75,1.75q-7.56-.1-15.12,0c-1.37,0-1.8-.43-1.77-1.79q0.12-4.92,0-9.84c0-2,.89-4.57-0.42-5.72-1.11-1-3.65-.21-5.54-0.39s-2.45.31-2.41,2.29c0.14,6.48.05,13,.05,19.44,0,5.28,0,10.56,0,15.84,0,2-.68,4.71.34,5.77,1.31,1.37,4.07.25,6.19,0.49,1.52,0.17,1.87-.42,1.84-1.87-0.09-4.88,0-9.76,0-14.64,0-1.12,0-2,1.56-2,5.2,0.08,10.4.06,15.6,0,1.18,0,1.48.41,1.46,1.52-0.06,3.52-.1,7,0,10.56,0.06,2.11-1,5,.5,6.12s4.16,0.2,6.32.29c1.23,0.05,1.66-.32,1.66-1.61Q625,283.22,625.1,262.95Z" transform="translate(-415.43 -186.43)" style="fill:#003f6c"/><path d="M550,261.72c-1.38-1.05-4.11-.28-6.25-0.43-1.41-.1-1.73.45-1.71,1.77q0.11,6.35,0,12.71c-0.09,5,.38,10.07-0.34,15.09-0.47,3.27-2.07,5.63-5.42,6.58-6.34,1.79-11.22-1.79-11.31-8.48-0.1-7.11,0-14.23,0-21.35,0-2,.92-4.76-0.43-5.94-1.15-1-3.81-.2-5.78-0.37-1.66-.15-2.2.33-2.15,2.06,0.13,4.39,0,8.79,0,13.19h0.09c0,4.56-.12,9.12,0,13.67,0.22,7,4,12.49,9.82,14.55a20.76,20.76,0,0,0,12,.53c7.31-1.78,11.58-7.59,11.74-16,0.14-7.19.09-14.39,0.05-21.58C550.38,265.6,551.31,262.72,550,261.72Z" transform="translate(-415.43 -186.43)" style="fill:#003f6c"/><path d="M841.41,303.74q-12.78-10.12-25.61-20.19a3.35,3.35,0,0,1-1.49-3c0-3.19.34-6.38-.09-9.57-1.63-1.57-3.21-3.2-4.92-4.68-1-.87-1.53-2.37-3.12-2.5,0,13,0,26-.1,39,0,2.17.58,2.61,2.65,2.6,11.41-.07,22.83,0,34.24.06A3.19,3.19,0,0,0,841.41,303.74Z" transform="translate(-415.43 -186.43)" style="fill:#003f6c"/><path d="M806.19,263.77l0,0v0h0.05v-0.06h0Z" transform="translate(-415.43 -186.43)" style="fill:#003f6c"/><path d="M813.6,241.13c0.51,4.26,1,8.52,1.6,13.11,1.16-1.06,2.06-1.82,2.9-2.65q14.56-14.41,29.08-28.85c0.47-.47,1.34-0.83,1.1-1.68-0.16-.55-0.82-0.33-1.27-0.33-11.42,0-22.85,0-34.27,0-1.34,0-1.57.41-1.41,1.68C812.15,228.62,812.85,234.88,813.6,241.13Z" transform="translate(-415.43 -186.43)" style="fill:#003f6c"/><path d="M846.07,263.45c1.75,0,2.45-.27,2.42-2.28-0.11-11,0-21.91-.07-32.86,0-.57.33-1.26-0.38-1.8-6.29,8-12.72,15.83-18.78,24-2.59,3.46-5.2,5.83-9.79,4.68-0.83-.21-1.77.08-2.63-0.05-1.76-.27-2.94.45-4.18,1.66-2.09,2-3.75,4.55-6.42,5.95,0.1-13.33.17-26.67,0.32-40,0-1.58-.43-2-2-2-9.74.07-19.49,0-29.23,0h-6.22a4.09,4.09,0,0,0,1.79,1.85q13,10.26,25.94,20.48c1,0.77,1.75,1.49,1.61,2.93-0.22,2.3-.21,4.62-0.39,6.92a4.24,4.24,0,0,0,1.33,3.6c2.15,2.19,4.71,4,6.29,6.75-13.11,0-26.22,0-39.33-.15-1.81,0-2.29.48-2.26,2.27,0.12,5.67,0,11.35,0,17v18c0.86-1,1.36-1.57,1.83-2.16,6.14-7.77,12.39-15.46,18.36-23.37,2-2.67,4-4.29,7.49-3.5,1.29,0.29,2.72-.06,4.06.08a4.29,4.29,0,0,0,3.78-1.47c2.12-2.12,4-4.51,6.51-6.21l0.13-.44C819.54,263.38,832.8,263.37,846.07,263.45Z" transform="translate(-415.43 -186.43)" style="fill:#003f6c"/><path d="M765.63,258.22c6.17-.76,12.35-1.46,18.53-2.2,4.24-.51,8.48-1.07,12.72-1.6l0.3-.7-33.06-32c0,11.61,0,23.56,0,35.51C764.1,258.52,764.75,258.33,765.63,258.22Z" transform="translate(-415.43 -186.43)" style="fill:#003f6c"/><path d="M797.39,272.27L765.1,305.33c11.62,0,23.24,0,34.86.05,1.51,0,1.4-.66,1.26-1.76C799.93,293.34,798.7,283,797.39,272.27Z" transform="translate(-415.43 -186.43)" style="fill:#003f6c"/><path d="M764.92,305.32l0.12,0.07,0.06-.06h-0.17Z" transform="translate(-415.43 -186.43)" style="fill:#003f6c"/><path d="M764.92,305.32c-0.13-.07-0.08,0,0,0h0Z" transform="translate(-415.43 -186.43)" style="fill:#003f6c"/><path d="M816.64,273.66c2.82,2.93,5.68,5.82,8.55,8.71l22.94,23.09a1.94,1.94,0,0,0,.27-0.65q0-17.74.06-35.48c0-1-.35-1.13-1.28-1-2.53.37-5.07,0.62-7.61,0.91l-23.29,2.68C814.92,272.79,816.23,273.24,816.64,273.66Z" transform="translate(-415.43 -186.43)" style="fill:#003f6c"/><path d="M584,261.27c-8,.09-16,0-24,0-6.13,0-6.07,0-5.93,6.15,0,1.45.56,1.7,1.82,1.65,2.47-.09,5,0.16,7.42-0.08,2.26-.22,2.62.69,2.57,2.68-0.13,5.11,0,10.22,0,15.33,0,4-.05,8,0,12,0,2-.92,4.65.42,5.71s3.83,0.2,5.81.38c1.72,0.16,2.12-.5,2.11-2.14q-0.11-13.9,0-27.8c0-2-.88-4.48.42-5.74s3.65-.32,5.55-0.34c5.82,0,5.77,0,5.77-5.83C586,261.75,585.61,261.26,584,261.27Z" transform="translate(-415.43 -186.43)" style="fill:#013f6c"/><path d="M591.5,256.12c6.88-.08,13.76-0.06,20.63,0a3,3,0,0,0,2.62-1.27c2.59-3.25,5.27-6.42,7.89-9.66A2.76,2.76,0,0,1,625,243.9q7.08,0.09,14.15,0c1.17,0,1.5.38,1.47,1.51-0.07,2.88-.05,5.76,0,8.64,0,0.74-.52,1.88,1,1.89s1.18-1,1.18-1.83q0-7.92,0-15.83c0-5.2,0-10.4,0-15.59,0-1.82-1.16-2.59-2.7-1.77a5.1,5.1,0,0,0-1.32,1.35Q626.15,237.6,613.5,253a2.8,2.8,0,0,1-2.4,1.22q-8.88-.09-17.75,0c-1.35,0-1.77-.36-1.74-1.72,0.09-4,.13-8,0-12-0.06-1.79.6-2.08,2.19-2.05,5.2,0.09,10.4.06,15.59,0,0.7,0,2,.62,1.93-0.92-0.08-1.27-1.24-.72-1.9-0.72-5.28,0-10.56-.09-15.83,0-1.61,0-2-.48-2-2,0.12-3.11.16-6.24,0-9.35-0.11-2,.31-2.74,2.55-2.67,5.83,0.19,11.67.09,17.51,0,0.73,0,1.95.62,2-.86s-1.19-1-1.89-1c-6.72,0-13.44,0-20.15-.06-1.53,0-2,.35-2,2q0.11,15.71,0,31.43C589.62,255.75,590,256.14,591.5,256.12Zm49.11-32.67c0,6.16,0,11.58,0,17,0,1-.11,1.63-1.39,1.61-4.44-.06-8.88,0-13.95,0Z" transform="translate(-415.43 -186.43)" style="fill:#023f6c"/><path d="M676.18,261.65c-1.16-1-3.81-.15-5.78-0.37s-2.14.69-2.13,2.32c0.06,11.74,0,23.48.05,35.23,0,2-.92,4.75.45,5.92,1.17,1,3.81.2,5.78,0.38,1.66,0.15,2.16-.35,2.13-2.07-0.11-6.55,0-13.1,0-19.65,0-5.27,0-10.54,0-15.82C676.6,265.54,677.55,262.82,676.18,261.65Z" transform="translate(-415.43 -186.43)" style="fill:#003f6c"/><path d="M814.32,280.58a3.35,3.35,0,0,0,1.49,3q12.85,10,25.61,20.19a3.19,3.19,0,0,1,1.57,1.73h0c1.71-.91,3.43.2,5.15,0l-22.94-23.09c-2.87-2.89-5.73-5.78-8.55-8.71-0.41-.43-1.72-0.88-0.36-1.75a2.43,2.43,0,0,0-2-.91C814.66,274.19,814.33,277.39,814.32,280.58Z" transform="translate(-415.43 -186.43)" style="fill:#fdfdfd"/><path d="M559.26,248.41c1.45,5.17,6.33,8.3,12.87,8.28,4.25,0,7.64-1,10.09-3.09a8.56,8.56,0,0,0-1.68-14.46,26.71,26.71,0,0,0-5.66-1.86c-3.17-.76-6.44-1.16-9.39-2.7-4.42-2.32-4.92-7.47-1-10.54,6.13-4.81,15.45-2.1,17.84,5.24,0.25,0.76.51,1.13,1.27,1,0.94-.18.7-0.9,0.61-1.52a9.33,9.33,0,0,0-3.07-5.8c-4.56-4.08-14.21-4-18.67.18a8,8,0,0,0,1.2,12.71,19.33,19.33,0,0,0,5.33,2.07c3.38,0.89,6.9,1.24,10.14,2.69,2.43,1.09,4.15,2.64,4.32,5.48a6.84,6.84,0,0,1-3.61,6.79,15.15,15.15,0,0,1-12.72,1c-3.57-1.21-5.94-3.67-6.19-7.69,0-.8-0.62-0.8-1.2-0.81-0.86,0-.84.57-0.77,1.14A12.2,12.2,0,0,0,559.26,248.41Z" transform="translate(-415.43 -186.43)" style="fill:#023f6b"/><path d="M730.38,256.12c6.72-.09,13.44,0,20.15-0.07,0.69,0,1.93.66,1.94-.92s-1.23-.94-1.93-0.94c-6-.05-12-0.11-18,0-1.87,0-2.25-.54-2.19-2.28,0.13-3.83.12-7.68,0-11.51,0-1.61.47-2,2-2,5.28,0.09,10.56.05,15.83,0,0.66,0,1.83.54,1.88-.75,0.05-1.51-1.25-.89-2-0.9-5.2-.05-10.4-0.09-15.59,0-1.61,0-2.26-.32-2.18-2.09,0.15-3.27.14-6.56,0-9.83-0.07-1.72.52-2.13,2.16-2.1,6,0.09,12,.06,18,0,0.74,0,2,.53,1.94-1,0-1.36-1.13-.85-1.79-0.86-6.8,0-13.6,0-20.39-.06-1.46,0-1.9.35-1.87,1.85,0.1,5.28,0,10.56,0,15.83s0.07,10.4,0,15.59C728.37,255.74,728.83,256.14,730.38,256.12Z" transform="translate(-415.43 -186.43)" style="fill:#013f6c"/><path d="M671.81,221.71c-0.06-1-.83-0.8-1.41-0.8q-11.76,0-23.52,0c-0.65,0-1.52-.27-1.53.92s0.82,1,1.51,1c2.88,0,5.77.11,8.64,0,1.75-.09,2.12.54,2.08,2.17-0.11,4.8,0,9.6,0,14.4s0,9.76,0,14.64c0,0.79-.62,2.19,1.07,2.08,1.48-.1.79-1.36,0.79-2.07,0-9.68.07-19.36,0-29,0-1.66.42-2.24,2.12-2.17,3,0.12,5.92,0,8.88,0C671.2,222.82,671.87,222.78,671.81,221.71Z" transform="translate(-415.43 -186.43)" style="fill:#07436e"/><path d="M686.24,225.41c-0.1,9.66-.05,19.33,0,29,0,0.67-.46,1.69,1,1.68s1-1,1-1.69c0-5,0-9.91,0-14.86s0.06-9.75,0-14.62c0-1.62.34-2.26,2.09-2.17,2.87,0.14,5.75,0,8.63,0,0.69,0,1.53.18,1.57-.93s-0.84-.95-1.5-1q-11.62,0-23.25,0c-0.64,0-1.56-.3-1.58.87s1,1,1.71,1c2.64,0,5.29.18,7.9,0C686,222.55,686.26,223.43,686.24,225.41Z" transform="translate(-415.43 -186.43)" style="fill:#02406c"/><path d="M725.2,255.23c0.1-1.57-1.1-1-1.83-1.05-5.51,0-11-.09-16.54,0-1.82,0-2.42-.36-2.4-2.32,0.11-9.67.07-19.33,0-29,0-.71.61-1.9-0.93-2s-1,1.14-1,1.87c0,5.19,0,10.39,0,15.58s0.06,10.39,0,15.58c0,1.57.22,2.21,2,2.18,6.31-.12,12.62,0,18.93-0.07C724,256.05,725.11,256.6,725.2,255.23Z" transform="translate(-415.43 -186.43)" style="fill:#013f6b"/><path d="M770.33,543.78c-0.51-1-.94-1.8.8-2.08,4.49-.75,6.87-3.6,7.76-8a24.05,24.05,0,0,0,.24-7.87c-0.83-6.6-4.57-9.87-11.23-10-2.32-.06-4.65.09-7-0.08-1.77-.13-2.27.36-2.26,2.2q0.12,22.91,0,45.82c0,2.3,1,2.33,2.7,2.33s2.91,0,2.84-2.46c-0.2-6.79-.07-13.58-0.07-20.38l0.38-.14c0.29,0.54.61,1.07,0.87,1.62,2.92,6.12,5.95,12.18,8.67,18.39,1,2.35,2.33,3.16,4.83,3,1.84-.13,2.18-0.38,1.31-2.12C776.84,557.28,773.62,550.51,770.33,543.78Zm-5-6.09c-1.19,0-1.21-.72-1.2-1.58,0-2.39,0-4.78,0-7.17s0-4.78,0-7.17c0-1.12.35-1.48,1.5-1.54,5.53-.32,8,1.83,8.26,7.36a28.14,28.14,0,0,1,0,3.35C773.38,537,770.5,537.73,765.31,537.68Z" transform="translate(-415.43 -186.43)" style="fill:#fdfefd"/><path d="M725.94,533.11c-0.37-4.63-1.09-9.22-3.64-13.25a9.75,9.75,0,0,0-16.77-.19,19.75,19.75,0,0,0-2.54,5.91c-1.71,6.41-1.72,12.94-1.51,19.5,0.16,5.3.71,10.54,3.08,15.37,1.75,3.57,4.42,6.05,8.69,6.18,5,0.15,8.32-2.16,10.4-7.24,2.42-5.91,2.42-12.16,2.32-18.39C726,538.38,726.15,535.73,725.94,533.11Zm-4.7,7.67a78.94,78.94,0,0,1-.92,13.13,12.88,12.88,0,0,1-2.17,5.77,5,5,0,0,1-8.34.08,15.3,15.3,0,0,1-2.73-7.57c-1.13-8.68-1.37-17.35.68-25.95a11.46,11.46,0,0,1,1.73-3.92c2.36-3.39,6.44-3.39,8.75,0,1.62,2.38,2.13,5.14,2.52,7.91A58.85,58.85,0,0,1,721.24,540.78Z" transform="translate(-415.43 -186.43)" style="fill:#fdfdfd"/><path d="M522,556.78q-3.91-19.7-7.82-39.39c-0.19-1-.37-1.68-1.76-1.68-3.19,0-3.15-.1-3.8,3.25q-2.76,14.08-5.57,28.15c-1.13,5.71-2.29,11.41-3.4,17.12-0.13.66-.67,1.55,0.71,1.82,3.19,0.62,4.24,0,4.78-3.23,0.12-.71.25-1.41,0.39-2.11,1-4.93,1-4.93,6.13-4.93s5.23,0,6.07,5.13c0.1,0.63.23,1.26,0.35,1.88,0.68,3.5.68,3.45,4.23,3.28,1.18-.06,1.51-0.31,1.22-1.55C522.93,562,522.52,559.35,522,556.78Zm-8-5.35c-1.27-.11-2.55,0-3.82,0-3,0-3,0-2.45-3.09,1.34-7.11,2.64-14.23,3.36-21.44a1.56,1.56,0,0,1,0-.66c0.14-.26.4-0.15,0.5,0.06a4.4,4.4,0,0,1,.31,2.46c1.22,6.89,2.38,13.79,3.72,20.65C516,551.06,515.67,551.57,514,551.43Z" transform="translate(-415.43 -186.43)" style="fill:#fdfdfd"/><path d="M511.91,528.74l-0.21-.47A0.6,0.6,0,0,0,511.91,528.74Z" transform="translate(-415.43 -186.43)" style="fill:#fdfdfd"/><path d="M661.16,515.84c-2.23-.14-4.48.05-6.71-0.12-1.76-.14-2.07.55-2.05,2.16,0.08,7.59,0,15.19,0,22.78,0,7.83.07,15.67,0,23.5,0,2.29,1.33,1.83,2.63,1.88s2.43,0.2,2.38-1.86c-0.14-6.07,0-12.15,0-18.22,0-3.63,0-3.63,3.64-3.9,6.34-.48,9.39-3,10.15-8.74a26.94,26.94,0,0,0-.18-8.83C669.84,518.83,666.9,516.2,661.16,515.84Zm5.34,13.47a29.94,29.94,0,0,1-.34,3.09,6.06,6.06,0,0,1-8.09,5.09c-1-.28-0.7-0.93-0.71-1.5,0-2.4,0-4.79,0-7.19s0.06-4.63,0-6.95c0-1.23.34-1.62,1.61-1.65C664.4,520.07,666.76,522.85,666.5,529.32Z" transform="translate(-415.43 -186.43)" style="fill:#fdfefd"/><path d="M463.34,515.84c-2.23-.13-4.48,0-6.71-0.11-1.56-.1-2,0.39-2,2,0.08,7.67,0,15.34,0,23,0,7.83.08,15.66,0,23.48,0,2.33,1.37,1.8,2.65,1.86s2.42,0.17,2.37-1.87c-0.14-6.07,0-12.14,0-18.21,0-3.6,0-3.6,3.64-3.9,6.48-.54,9.56-3.25,10.19-9.26a27.83,27.83,0,0,0-.26-8.35C472.06,518.88,469.05,516.18,463.34,515.84Zm5,16.91a6.1,6.1,0,0,1-8.13,4.72c-0.92-.34-0.58-1-0.59-1.57,0-2.31,0-4.62,0-6.93s0.1-4.63,0-6.93c-0.09-1.55.51-1.85,1.92-1.82,4.48,0.08,6.39,1.7,7,6.11A23.48,23.48,0,0,1,468.33,532.75Z" transform="translate(-415.43 -186.43)" style="fill:#fdfefd"/><path d="M610.75,537.37c-2.2-1.63-4.25-3.38-5.26-6-1.44-3.81-.27-8.4,2.66-10.36s6.7-1.4,10,1.63a1.46,1.46,0,0,0,1.29.78c0-1.55,0-3.12,0-4.68a1.73,1.73,0,0,0-.91-1.54,11.89,11.89,0,0,0-14.76,1.1,14.33,14.33,0,0,0,.6,20.39c2.42,2.18,5.21,4,7.81,5.93s4.51,4.35,4.74,7.7-0.67,6.57-3.7,8.55c-2.85,1.86-5.79,1.32-8.56-.37-1.07-.66-2-1.48-3.28-2.39-0.35,6.56,0,7.24,4.93,8.34a12.35,12.35,0,0,0,6.38-.15c9.33-2.86,12.4-16,5.43-23.19C615.95,540.81,613.25,539.22,610.75,537.37Z" transform="translate(-415.43 -186.43)" style="fill:#fdfdfd"/><path d="M567.32,542.28c-2.55-2.16-5.35-4-8-6.08a10.54,10.54,0,0,1-3.94-5.3c-1-3.26-.64-6.35,1.68-9,1.89-2.13,4.37-2.49,7-1.85,2.09,0.5,3.58,2,5.42,3.87,0-2,0-3.46,0-4.89a2,2,0,0,0-.8-1.84c-4.41-3.42-11.84-2.67-15.46,1.6a14.4,14.4,0,0,0,2.13,20.67c2.61,2.1,5.45,3.92,8,6.08a9.82,9.82,0,0,1,2.87,11.49c-1.58,4-5.2,5.64-9.32,4.43-2.1-.62-3.62-2.12-5.41-3.4-0.55,6.22,0,7.26,4.78,8.3a12.35,12.35,0,0,0,6.62-.2c5.18-1.73,7.8-5.66,8.78-10.73S571.41,545.75,567.32,542.28Z" transform="translate(-415.43 -186.43)" style="fill:#fdfdfd"/><path d="M824.3,515.72q-7.78.18-15.57,0c-1.75,0-2.3.36-2.29,2.2s0.49,2.6,2.39,2.35c1-.14,2.09.07,3.11,0,1.72-.2,2.13.51,2.11,2.15-0.08,6.87,0,13.74,0,20.61s0.08,13.74-.05,20.61c0,2,.59,2.52,2.55,2.51s2.59-.4,2.57-2.49c-0.1-12.62,0-25.24,0-37.86,0-5.42,0-5.55,5.39-5.44,2.23,0,1.84-1.16,2-2.5C826.56,516.11,826,515.68,824.3,515.72Z" transform="translate(-415.43 -186.43)" style="fill:#fdfdfd"/><path d="M642.37,486.46c1.65,0,2.62-.2,2.9-2.16,0.72-5.05,1.66-10.08,2.53-15.11,0.68-3.93,1.39-7.85,2.09-11.78l0.5,0,14,31.57,14.51-32.34c1.4,8.32,2.72,16.09,4,23.86,1.06,6.34,1,6.3,7.5,6,1.36-.07,1.5-0.44,1.27-1.72-2.39-13.44-4.7-26.89-7-40.33-0.67-3.81-1.4-7.61-2.24-12.14l-17.57,38.82L647.5,432.5c-0.3.89-.47,1.25-0.54,1.63q-4.59,23.49-9.16,47C636.76,486.45,636.79,486.4,642.37,486.46Z" transform="translate(-415.43 -186.43)" style="fill:#fefefe"/><path d="M723.19,487.43c14.88-.08,25.93-11.28,25.88-26.25,0-14.79-11.41-26-26.25-25.95s-26,11.33-26,26.19S708.1,487.51,723.19,487.43Zm-0.12-44.77c10.63,0,18.1,7.69,18.2,18.7,0.1,10.78-7.88,19-18.43,18.88s-18-7.86-18-18.86C704.79,450.18,712.15,442.64,723.07,442.66Z" transform="translate(-415.43 -186.43)" style="fill:#fefefe"/><path d="M756.88,480.54c0,6.06,0,6,6.08,5.94,1.66,0,2-.61,1.94-2.09-0.07-5.36,0-10.71,0-16.07,0-.74-0.46-1.83.43-2.15,1.06-.38,1.4.84,1.87,1.5,4,5.68,8,11.39,12,17.08,0.49,0.69.8,1.66,1.87,1.67,2.75,0,5.49,0,8.8,0l-15.47-21.26,1.24-.5c6.71-2.56,10-7.56,9.57-14.64-0.4-6.88-4.22-11.4-11.23-13.08-4.79-1.15-9.69-.68-14.55-0.86-2-.07-2.56.45-2.54,2.48C756.93,452.56,756.88,466.55,756.88,480.54Zm8-24.06c0.15-3.75.09-7.52,0-11.28,0-1.31.31-1.92,1.73-1.82A27.09,27.09,0,0,1,772,444c3.75,1,5.6,3.37,5.7,7a7.44,7.44,0,0,1-5.67,7.42,10.87,10.87,0,0,1-4.56.61C765.2,459.75,764.74,458.61,764.83,456.48Z" transform="translate(-415.43 -186.43)" style="fill:#fefefe"/><path d="M489.74,486.45c1.76-.06,3.52-0.07,5.28,0a1.94,1.94,0,0,0,2.15-1.41c1.23-2.94,2.65-5.81,3.88-8.76a2.59,2.59,0,0,1,2.84-1.89c4,0.12,8,0,12,0,2.39,0,5.21-.67,7.06.35s2.46,4,3.06,6.27c1.22,4.57,3.85,6.13,8.47,5.47,2-.28,2.39-0.43,1.51-2.36-4.58-10-9-20.1-13.55-30.16l-9.14-20.41a2.31,2.31,0,0,0-.49.32Q500.72,459.48,488.64,485C488,486.35,488.63,486.49,489.74,486.45ZM506,465.29c2.19-4.79,4.37-9.59,6.77-14.85,2.3,5.25,4.44,10.14,6.61,15,0.45,1,.29,1.48-0.89,1.47-3.92,0-7.84,0-11.75,0C505.08,467,505.6,466.13,506,465.29Z" transform="translate(-415.43 -186.43)" style="fill:#fefefd"/><path d="M582.83,486.49c6.63-.15,13.27-0.05,19.91-0.05,5.43,0,5.37,0,5.38-5.38,0-1.66-.48-2.21-2.17-2.18-5.28.1-10.56,0-15.83,0.06-1.45,0-2-.39-1.92-1.88q0.14-5.87,0-11.75c0-1.45.36-1.94,1.87-1.9,4.08,0.1,8.16,0,12.23,0,5.25,0,5.18,0,5.22-5.23,0-1.7-.51-2.15-2.16-2.12-5.12.1-10.24,0-15.35,0.06-1.34,0-1.84-.38-1.8-1.76,0.08-3,.1-5.92,0-8.87-0.05-1.47.43-1.93,1.9-1.9,4.24,0.09,8.48,0,12.71,0,5.38,0,5.31,0,5.31-5.45,0-1.74-.59-2.11-2.21-2.09-7.84.08-15.67,0.1-23.51,0-1.91,0-2.21.65-2.2,2.34,0.08,7.6,0,15.19,0,22.79s0.07,15,0,22.55C580.16,485.81,580.63,486.54,582.83,486.49Z" transform="translate(-415.43 -186.43)" style="fill:#fefefe"/><path d="M796,461c0,7.76,0,15.51,0,23.27,0,1.67.48,2.18,2.16,2.16,6.88-.09,13.75,0,20.63,0,5.17,0,5.1,0,5.12-5.21,0-1.74-.44-2.39-2.28-2.35-5.27.11-10.55,0-15.83,0.07-1.56,0-2.08-.41-2-2,0.1-3.92.07-7.84,0-11.75,0-1.34.38-1.8,1.76-1.78,4.24,0.08,8.47,0,12.71,0,5,0,4.91,0,5-5,0-1.76-.42-2.36-2.26-2.32-5,.12-10.07,0-15.11.07-1.49,0-2.15-.33-2.07-2,0.14-2.87.11-5.76,0-8.63-0.05-1.47.43-1.94,1.9-1.91,4.32,0.08,8.63,0,13,0,5.4,0,5.35,0,5.3-5.51,0-1.51-.37-2.06-2-2q-11.87.14-23.75,0c-1.69,0-2.16.5-2.15,2.16C796,445.85,796,453.44,796,461Z" transform="translate(-415.43 -186.43)" style="fill:#fefefe"/><path d="M469.11,487.39c0.48,0,1,0,1.44,0a15.31,15.31,0,0,0,14.37-11.7c1.8-7.36-.68-13.4-7.18-17.15a62.49,62.49,0,0,0-5.84-2.76c-2-.91-4.23-1.51-6.08-2.8a5.51,5.51,0,0,1,0-9.27c2.91-1.81,7.5-1.24,10.07,1,0.9,0.78.94,2.72,2.49,2.4,1.19-.24,2.22-1.21,3.33-1.85a5.36,5.36,0,0,1,.83-0.48c1.69-.61,1.35-1.54.58-2.74-5.07-8-17.75-9.19-24.29-2.32a12.67,12.67,0,0,0-1,16.28c2.06,2.67,5,4.21,8,5.52,2.71,1.17,5.56,2,8,3.74a7.79,7.79,0,0,1,3.39,9,8.13,8.13,0,0,1-7.56,6,8.49,8.49,0,0,1-8.08-5.34c-0.58-1.3.25-3.46-1.52-3.82-1.36-.28-2.94.52-4.42,0.84a5.59,5.59,0,0,1-.94.19c-1.42.05-1.61,0.78-1.44,2.07C454.27,481.71,461,487.42,469.11,487.39Z" transform="translate(-415.43 -186.43)" style="fill:#fefefe"/><path d="M574.33,436.13c-2.75,0-5.13,0-7.5,0-1.09,0-1.28.73-1.58,1.47q-1.38,3.44-2.77,6.89l-10.37,25.92a1.92,1.92,0,0,1-1-1.47Q545,453.48,538.78,438c-0.36-.9-0.44-2-2-1.95-2.29.12-4.59,0-7.3,0l22.41,53.76Z" transform="translate(-415.43 -186.43)" style="fill:#fefefe"/><path d="M606.89,403.62a26.44,26.44,0,0,0,7.15,0c0.49-.06.5-0.74,0.59-1.22q0.72-4.25,1.46-8.49l3.49-20.08,14.34,32.36,14.14-31.46c1.87,8.1,3.27,16,4.55,24,0.81,5.09.73,5.1,5.81,5.1,3.26,0,3.2,0,2.63-3.14-1.74-9.65-3.42-19.32-5.12-29-1.27-7.2-2.55-14.4-3.95-22.31l-17.6,38.88-17.46-38.89c-1.54,7.9-2.94,15.1-4.35,22.29q-3,15.14-5.92,30.28C606.52,402.5,606.1,403.5,606.89,403.62Z" transform="translate(-415.43 -186.43)" style="fill:#fefefe"/><path d="M536.76,404.77c14.81,0.08,26-11,26.24-26a25.4,25.4,0,0,0-25.23-26.18c-15.45-.23-26.89,10.53-27.14,25.53A25.77,25.77,0,0,0,536.76,404.77Zm0.32-45c10.49,0.14,18.16,8.18,18.08,18.94-0.08,11-7.81,18.73-18.55,18.61-10.9-.11-18.11-8-18-19.57A17.86,17.86,0,0,1,537.08,359.76Z" transform="translate(-415.43 -186.43)" style="fill:#fefefe"/><path d="M703,404.76c15.1,0,26.07-11.23,26-26.63,0-14.71-11.2-25.6-26.24-25.57s-25.93,11.07-25.92,26.38C676.92,393.6,688.23,404.78,703,404.76Zm0.17-45c10.58,0.11,18.2,8.2,18.06,19.17s-7.82,18.49-18.49,18.38-18.19-8-18.06-19C684.84,367.51,692.7,359.65,703.21,359.76Z" transform="translate(-415.43 -186.43)" style="fill:#fefefe"/><path d="M459.23,403.84c3-.12,5.91.06,8.87-0.05,5.27-.21,10.54-0.49,15.3-3.18,9.12-5.16,13-13.05,12.77-23.42a23.83,23.83,0,0,0-17.87-22.73c-6.3-1.58-12.72-.64-19.08-1-1.63-.08-2,0.51-2,2,0.07,7.67,0,15.34,0,23s0,15.5,0,23.25C457.23,403.31,457.6,403.9,459.23,403.84Zm8.82-43c1.74,0.21,3.51.13,5.25,0.31,8.73,0.88,15,8,15.14,17.18a17.16,17.16,0,0,1-14.59,17.48c-2.14.31-4.29,0.36-6.43,0.48-1.64.09-2.21-.35-2.17-2.09,0.11-5.27,0-10.54,0-15.81,0-5,.13-9.91-0.06-14.85C465.14,361.28,465.91,360.61,468,360.87Z" transform="translate(-415.43 -186.43)" style="fill:#fefefe"/><path d="M746,398c0,5.93,0,5.87,5.88,5.84,1.56,0,2-.42,2-2-0.1-5.52-.05-11,0-16.56,0-.65-0.45-1.6.42-1.91s1.29,0.7,1.72,1.31c4.09,5.82,8.15,11.66,12.25,17.48,0.53,0.75.88,1.7,2.12,1.67,2.68-.06,5.36,0,8.6,0L771.13,393l-7.63-10.5a5,5,0,0,1,.94-0.56c7.44-2.25,10.23-8.67,9.87-14.44-0.47-7.63-4.8-12.17-12.47-13.57-4.52-.82-9.1-0.15-13.64-0.44-1.88-.12-2.22.56-2.21,2.29C746.06,369.85,746,383.92,746,398Zm9.59-37.34a34.44,34.44,0,0,1,4.27.35c4.8,1,7,3.42,6.79,7.72-0.16,4-2.92,6.78-7.39,7.39-5.42.74-5.42,0.74-5.42-4.67q0-1.55,0-3.11c0-2,.08-4,0-6C753.77,361,754.3,360.55,755.62,360.66Z" transform="translate(-415.43 -186.43)" style="fill:#fefefe"/><path d="M796,403.85c6.71-.13,13.43,0,20.14,0,5.42,0,5.35,0,5.36-5.43,0-1.7-.53-2.17-2.18-2.14-5.35.1-10.71,0-16.07,0.08-1.47,0-1.92-.38-1.88-1.87,0.11-4,.09-8,0-12,0-1.41.48-1.74,1.79-1.72,4.08,0.07,8.15,0,12.23,0,5.54,0,5.46,0,5.42-5.59,0-1.65-.6-2-2.09-2-5.19.08-10.39,0-15.59,0.06-1.34,0-1.81-.35-1.76-1.74,0.1-3,.12-5.92,0-8.87-0.07-1.61.62-1.82,2-1.8,4.24,0.07,8.47,0,12.71,0,5.59,0,5.52,0,5.44-5.57,0-1.54-.57-1.84-2-1.83-8,.05-16,0.08-24,0-1.81,0-2,.68-2,2.23,0.07,7.67,0,15.35,0,23,0,7.51.06,15,0,22.54C793.48,403.19,793.91,403.9,796,403.85Z" transform="translate(-415.43 -186.43)" style="fill:#fefefe"/><path d="M498.57,271.15a11.41,11.41,0,0,0-15.12-.3A14.78,14.78,0,0,0,477.88,283a13,13,0,0,0,.55,4.74c2.7,9.53,13,13.31,20,7.38S505.59,277.15,498.57,271.15Z" transform="translate(-415.43 -186.43)" style="fill:#fefefe"/><path d="M697.88,269.09c-2,0-4,.09-6,0-1.44-.09-1.94.29-1.89,1.82,0.11,4.07,0,8.14,0,12.2s0.09,8.14,0,12.2c-0.06,1.76.53,2.17,2.16,2.06,2.06-.14,4.15,0,6.22,0,4.51-.12,7.76-2.18,9.45-6.42a21.24,21.24,0,0,0,.59-13.83C707,271.8,703.38,269.17,697.88,269.09Z" transform="translate(-415.43 -186.43)" style="fill:#fefefe"/><path d="M639.23,242c1.28,0,1.39-.6,1.39-1.61,0-5.41,0-10.82,0-17L625.28,242C630.35,242,634.79,242,639.23,242Z" transform="translate(-415.43 -186.43)" style="fill:#fdfdfd"/><path d="M773.84,530.92a28.14,28.14,0,0,0,0-3.35c-0.24-5.53-2.72-7.68-8.26-7.36-1.15.07-1.53,0.43-1.5,1.54,0.06,2.39,0,4.78,0,7.17s0,4.78,0,7.17c0,0.86,0,1.57,1.2,1.58C770.5,537.73,773.38,537,773.84,530.92Z" transform="translate(-415.43 -186.43)" style="fill:#01406c"/><path d="M718.24,522.34c-2.32-3.4-6.4-3.41-8.75,0a11.46,11.46,0,0,0-1.73,3.92c-2,8.6-1.81,17.27-.68,25.95a15.3,15.3,0,0,0,2.73,7.57,5,5,0,0,0,8.34-.08,12.88,12.88,0,0,0,2.17-5.77,78.94,78.94,0,0,0,.92-13.13,58.85,58.85,0,0,0-.48-10.52C720.38,527.49,719.86,524.72,718.24,522.34Z" transform="translate(-415.43 -186.43)" style="fill:#003f6c"/><path d="M511.91,528.74a0.6,0.6,0,0,1-.21-0.47l-0.61-1.38c-0.73,7.21-2,14.33-3.36,21.44-0.58,3.09-.6,3.09,2.45,3.09,1.28,0,2.56-.08,3.82,0,1.66,0.14,2-.37,1.63-2C514.29,542.53,513.14,535.63,511.91,528.74Z" transform="translate(-415.43 -186.43)" style="fill:#013f6b"/><path d="M511.91,528.74a4.4,4.4,0,0,0-.31-2.46c-0.1-.21-0.36-0.32-0.5-0.06a1.56,1.56,0,0,0,0,.66l0.61,1.38Z" transform="translate(-415.43 -186.43)" style="fill:#70849e"/><path d="M658.94,520.21c-1.27,0-1.65.42-1.61,1.65,0.08,2.31,0,4.63,0,6.95s0,4.79,0,7.19c0,0.57-.25,1.21.71,1.5a6.06,6.06,0,0,0,8.09-5.09,29.94,29.94,0,0,0,.34-3.09C666.76,522.85,664.4,520.07,658.94,520.21Z" transform="translate(-415.43 -186.43)" style="fill:#003f6c"/><path d="M461.48,520.21c-1.42,0-2,.28-1.92,1.82,0.13,2.3,0,4.62,0,6.93s0,4.62,0,6.93c0,0.55-.32,1.24.59,1.57a6.1,6.1,0,0,0,8.13-4.72,23.48,23.48,0,0,0,.11-6.42C467.87,521.92,466,520.29,461.48,520.21Z" transform="translate(-415.43 -186.43)" style="fill:#013f6c"/><path d="M722.84,480.24c10.55,0.07,18.52-8.1,18.43-18.88-0.1-11-7.57-18.68-18.2-18.7-10.92,0-18.28,7.52-18.27,18.72C704.81,472.38,712.26,480.17,722.84,480.24Z" transform="translate(-415.43 -186.43)" style="fill:#b4c329"/><path d="M767.5,459.09a10.87,10.87,0,0,0,4.56-.61,7.44,7.44,0,0,0,5.67-7.42c-0.09-3.67-2-6-5.7-7a27.09,27.09,0,0,0-5.45-.65c-1.42-.1-1.76.52-1.73,1.82,0.07,3.76.13,7.52,0,11.28C764.74,458.61,765.2,459.75,767.5,459.09Z" transform="translate(-415.43 -186.43)" style="fill:#b4c329"/><path d="M506.72,466.94c3.92,0,7.84,0,11.75,0,1.18,0,1.35-.46.89-1.47-2.17-4.88-4.3-9.77-6.61-15-2.4,5.26-4.58,10.06-6.77,14.85C505.6,466.13,505.08,467,506.72,466.94Z" transform="translate(-415.43 -186.43)" style="fill:#b4c329"/><path d="M536.61,397.31c10.74,0.11,18.46-7.64,18.55-18.61,0.08-10.76-7.59-18.8-18.08-18.94a17.86,17.86,0,0,0-18.44,18C518.51,389.36,525.71,397.2,536.61,397.31Z" transform="translate(-415.43 -186.43)" style="fill:#0096cd"/><path d="M702.79,397.31c10.67,0.11,18.35-7.52,18.49-18.38s-7.48-19.05-18.06-19.17-18.37,7.75-18.49,18.5C684.6,389.33,692.07,397.2,702.79,397.31Z" transform="translate(-415.43 -186.43)" style="fill:#0096cd"/><path d="M465.28,378.42c0,5.27.07,10.54,0,15.81,0,1.74.53,2.18,2.17,2.09,2.15-.12,4.29-0.17,6.43-0.48a17.16,17.16,0,0,0,14.59-17.48c-0.19-9.23-6.41-16.3-15.14-17.18-1.74-.18-3.51-0.1-5.25-0.31-2.13-.25-2.9.41-2.82,2.7C465.41,368.51,465.28,373.46,465.28,378.42Z" transform="translate(-415.43 -186.43)" style="fill:#0096cd"/><path d="M753.88,368.33q0,1.55,0,3.11c0,5.41,0,5.41,5.42,4.67,4.47-.61,7.23-3.37,7.39-7.39,0.17-4.3-2-6.71-6.79-7.72a34.44,34.44,0,0,0-4.27-.35c-1.32-.11-1.85.31-1.77,1.7C754,364.35,753.88,366.34,753.88,368.33Z" transform="translate(-415.43 -186.43)" style="fill:#0096cd"/></svg>