<?xml version="1.0" encoding="UTF-8"?>
<svg width="271px" height="246px" viewBox="0 0 271 246" version="1.1" xmlns="http://www.w3.org/2000/svg" xmlns:xlink="http://www.w3.org/1999/xlink">
    <!-- Generator: Sketch 49.3 (51167) - http://www.bohemiancoding.com/sketch -->
    <title>21logo2</title>
    <desc>Created with Sketch.</desc>
    <defs></defs>
    <g id="21logo2" stroke="none" stroke-width="1" fill="none" fill-rule="evenodd">
        <g id="21" fill="#171617" fill-rule="nonzero">
            <path d="M234.571681,1.73132307 L158.450857,24.4268677 C143.776526,8.90291234 121.297163,0 93.6748929,0 C50.3119914,0 27.0637313,17.6681881 3.1263651,50.237345 L40.59197,80.3797521 C58.6320396,58.2057776 71.4711724,47.781619 90.200348,47.781619 C109.284957,47.781619 122.842211,58.8649842 122.842211,79.3076357 C122.842211,99.4025737 111.047618,112.564975 80.8647752,137.513413 L0,203.716599 L0,246 L179.704336,246 L179.704336,199.90624 L73.893924,199.90624 L113.441354,169.416119 C156.456076,136.15878 177.274331,116.063842 177.274331,75.5262522 C177.274118,71.8381955 177.124016,68.8764437 176.824599,65.9279131 L218.265257,55.7862717 L218.265257,246 L271,246 L271,1.73132307 L234.571681,1.73132307 Z" id="Shape"></path>
        </g>
        <g id="joint" transform="translate(130.000000, 4.000000)" fill="#FFFFFF" fill-rule="nonzero">
            <path d="M15.5046705,64.2233751 C10.0298612,65.5883984 5.72275545,64.475154 2.14671196,61.239832 L0.990697477,60.1939613 L7.8420326,50.7168612 L9.27684463,51.94687 C10.5205126,53.0130183 11.231064,53.2954422 11.9697739,53.1112611 C12.5110536,52.9763049 12.7660346,52.4256074 12.4938587,51.3339694 L7.73709646,32.2556381 L20.2279636,29.1413151 L24.9448554,48.059735 C25.9795345,52.2096061 25.6905353,55.3879577 23.8929629,58.3796207 C22.1754124,61.2381046 19.2304005,63.2944463 15.5046705,64.2233751 Z M15.0838159,62.5354193 C18.4419573,61.6981406 20.9613157,59.8810278 22.4018087,57.4836448 C23.9623428,54.8864799 24.1739191,52.1585541 23.2568996,48.4805897 L18.9608624,31.2501256 L9.84590693,33.5227392 L14.1818145,50.9131148 C14.6702271,52.8720307 13.9497657,54.4104804 12.3906286,54.7992169 C10.8714693,55.1779858 9.6027897,54.5176524 8.14461813,53.2676185 L3.31382415,59.9498077 C6.11023365,62.4797784 9.72678062,63.8710782 15.0838159,62.5354193 Z M46.239856,56.6026958 C36.7289712,58.9740257 27.5509597,53.7246516 25.281235,44.621283 C22.9914417,35.4374236 28.6914293,26.3941899 38.2017517,24.0230002 C47.7126364,21.6516703 56.8906479,26.9010444 59.1603726,36.004413 C61.450166,45.1882724 55.7501783,54.2315061 46.239856,56.6026958 Z M45.8190013,54.9147399 C54.4542223,52.7617375 59.5157756,44.620732 57.492352,36.5052234 C55.4489933,28.309759 47.2578273,23.5579537 38.6226063,25.7109561 C29.9873854,27.8639585 24.9258321,36.004964 26.9492556,44.1204726 C28.9926144,52.315937 37.1837803,57.0677423 45.8190013,54.9147399 Z M44.2565177,48.3073404 C39.8458906,49.4070333 35.7936227,46.590983 34.6960783,42.1889728 L34.6761431,42.109017 C33.5885956,37.7471023 35.8137357,33.4082566 40.1850899,32.3183556 C44.5957171,31.2186627 48.647985,34.034713 49.7455294,38.4367232 L49.7654646,38.516679 C50.8530121,42.8785937 48.6278719,47.2174394 44.2565177,48.3073404 Z M43.8356631,46.6193846 C47.3936939,45.7322679 48.8948523,42.2157194 48.0775088,38.9375336 L48.0575736,38.8575779 C47.2302624,35.5394142 44.2039533,33.109227 40.6059446,34.0063114 C37.0479137,34.8934281 35.5467554,38.4099767 36.3640989,41.6881624 L36.3840341,41.7681181 C37.2113452,45.0862818 40.2376543,47.516469 43.8356631,46.6193846 Z M64.5734449,51.3946725 L56.754413,20.0342484 L69.4851474,16.8601198 L77.3041793,48.2205439 L64.5734449,51.3946725 Z M65.8405461,49.285862 L75.1953688,46.9534427 L68.2180462,18.9689303 L58.8632235,21.3013496 L65.8405461,49.285862 Z M90.31806,11.6658913 L102.968839,8.51169798 L110.787871,39.872122 L99.9763714,42.5677315 L89.6318367,34.7250326 L92.0782251,44.5369606 L79.4274465,47.6911539 L71.6084146,16.3307299 L82.8591218,13.5256135 L92.625908,20.922164 L90.31806,11.6658913 Z M80.6945476,45.5823435 L89.9694146,43.2698594 L86.7498786,30.3570058 L100.363662,40.6782824 L108.67906,38.6050209 L101.701737,10.6205084 L92.4268705,12.9329925 L95.50686,25.2861558 L82.4723796,15.4149258 L73.717225,17.597831 L80.6945476,45.5823435 Z M106.748042,19.5628994 L103.932747,8.27136853 L133.134366,0.990587227 L135.949661,12.2821181 L127.714219,14.3354445 L132.717956,34.4043376 L119.987222,37.5784662 L114.983484,17.509573 L106.748042,19.5628994 Z M121.254323,35.4696557 L130.609145,33.1372365 L125.605408,13.0683433 L133.840851,11.0150169 L131.867265,3.0993977 L106.041558,9.53846969 L108.015143,17.4540889 L116.250586,15.4007626 L121.254323,35.4696557 Z" id="JOINT"></path>
        </g>
    </g>
</svg>