<svg width="220" height="85" xmlns="http://www.w3.org/2000/svg" viewBox="-199 398 601 205">
  <style>
    .st0{fill:#00427a}.st1{fill:none}.st2{fill:#2086a8}
  </style>
  <path class="st0"
        d="M389.3 535.2v-51.3l-45.8 5.6 45.3 45.7zM273.2 528.4l31.8-40.2 14.9.3 11.3-11.3-58-.2zM382.5 535.2l-40.3-31.8.3-14.9-11.3-11.3-.2 58z"/>
  <path class="st1" d="M342.5 488.5"/>
  <path class="st0"
        d="M318.9 489.5l-45.7 45.3v.4h51.3zM279.2 418.5l41.1 32.5-.3 14.9 11.2 11.3.3-58.7zM318.9 464.9l-45.7-46.2v51.8zM389.3 419.6v-1.1h-51.4l5.6 46.4zM331.2 477.2l58.1.2V426l-31.8 40.2-15-.3zM25.3 431.8h-2.7c0-7.1-5.5-11.8-14.1-11.8s-14.3 4.2-14.3 10.4c0 5.3 4.2 8.2 14.8 10.3 11.2 2.2 17.7 5.2 17.7 13.6s-7.3 13.9-18.5 13.9c-8.7 0-18.1-4.9-18.1-15.6h2.7c0 8.9 7.8 13 15.4 13 9.8 0 15.8-4.3 15.8-11.2 0-6-3.9-8.7-15.6-11-8.9-1.7-17-4.5-17-12.8 0-7.7 6.8-12.9 16.9-12.9 11.8-.2 17 7 17 14.1zM128.9 421.3v45.9h-2.7v-45.9h-16.8v-2.6h36.3v2.6h-16.8zM168.4 421.3v45.9h-2.7v-45.9H149v-2.6h36.3v2.6h-16.9zM190.9 464.6h28.7v2.6h-31.4v-48.4h2.7v45.8zM226.7 440.5H254v2.5h-27.3v21.6h30.5v2.6H224v-48.4h33.1v2.6h-30.5l.1 19.1zM102.1 418.6l-38 46H35.2v-21.5h27.3v-2.5H35.2v-19.3h30.5v-2.6H32.6v48.5h33.1l13.8-16.8h23.3v16.7h3v-48.5h-3.7zm-20.4 29.2l21.2-25.6v25.6H81.7z"/>
  <path class="st2"
        d="M-138.9 492.8h-11.5c0-5.2-4.3-9.1-11.6-9.1-6.1 0-11.7 2.3-11.7 7 0 4.2 4.1 5.6 13.3 7.6 14.3 2.9 23.4 6.4 23.4 18.8 0 11.6-9.7 19-24.9 19-11.8 0-24.7-6.5-24.7-21h11.5c0 7.1 7.1 10.5 13.2 10.5 6.6 0 13.5-2.3 13.5-8.1 0-3.8-3.1-6.2-14.3-8.3-11.1-2.2-22.4-5.5-22.4-18.4 0-10.3 9.1-17.6 23.2-17.6 15.8-.2 23 10 23 19.6zM-74.1 504.4c0 17.6-12.4 31.5-29.5 31.5s-29.5-13.9-29.5-31.5c0-17.5 12.4-31.4 29.5-31.4 17.1.1 29.5 14 29.5 31.4zm-11.5 0c0-11.2-8-20.5-17.9-20.5-10 0-18 9.3-18 20.5 0 11.3 8 20.6 18 20.6 9.9 0 17.9-9.3 17.9-20.6zM-21.5 510.9c0 15.4-8.1 24.9-23.3 24.9S-68 526.2-68 510.9v-36.4h11.5v36.8c0 9 3.9 13.5 11.7 13.5s11.7-4.5 11.7-13.5v-36.8h11.6v36.4zM11.4 485.2v49.6H-.1v-49.6h-16.2v-10.7h43.8v10.7H11.4zM81.4 534.8H70v-25.5H44.3v25.5H32.7v-60.3h11.6v24.2H70v-24.2h11.5l-.1 60.3zM134.5 492.8H123c0-5.2-4.3-9.1-11.7-9.1-6.1 0-11.7 2.3-11.7 7 0 4.2 4.1 5.6 13.3 7.6 14.3 2.9 23.4 6.4 23.4 18.8 0 11.6-9.7 19-24.9 19-11.8 0-24.7-6.5-24.7-21h11.5c0 7.1 7.1 10.5 13.2 10.5 6.6 0 13.5-2.3 13.5-8.1 0-3.8-3.1-6.2-14.3-8.3-11.1-2.2-22.4-5.5-22.4-18.4 0-10.3 9.1-17.6 23.2-17.6 15.9-.2 23.1 10 23.1 19.6zM152.5 534.8H141v-60.3h11.5v60.3zM181.7 534.8h-22.3v-60.3h22.3c16.8 0 27.2 11.6 27.2 30.2 0 18.4-10.7 30.1-27.2 30.1zm0-49.6h-10.9v39h10.9c13.6 0 15.7-12.3 15.7-19.6.1-8.9-2.7-19.4-15.7-19.4zM257.6 534.8h-44.7v-60.3H257v10.7h-32.6v12.9h27.8v10.7h-27.8v15.4h33.2v10.6z"/>
  <path class="st1" d="M-199 403.2h601v147h-601z"/>
  <path class="st1" d="M-184 549.2h577.5v37.5H-184z"/>
  <path class="st0"
        d="M-156.2 578.6c0 .6.1 1.3.2 2.1s.3 1.4.5 1.9h-4c-.2-.4-.3-.9-.4-1.5-.1-.6-.2-1.2-.2-2v-4.5c0-1.6-.4-2.8-1.3-3.6-.8-.8-2.2-1.2-4.1-1.2h-10.7v12.9h-4V550h14.4c1.7 0 3.1.2 4.5.7 1.3.5 2.4 1.2 3.3 2 .9.9 1.6 1.9 2.1 3.1.5 1.2.7 2.6.7 4 0 1.8-.4 3.3-1.2 4.7-.8 1.4-1.9 2.4-3.3 3.3 2.3 1.3 3.4 3.6 3.4 6.9v3.9zm-9.4-12.8c1.9 0 3.5-.5 4.7-1.6 1.2-1.1 1.7-2.5 1.7-4.4 0-2.1-.6-3.7-1.8-4.6-1.2-1-2.8-1.4-4.8-1.4h-10.5v12.1h10.7zM-127.3 575c-.8 2.6-2.3 4.6-4.2 6-2 1.4-4.4 2.1-7.2 2.1-1.8 0-3.4-.3-4.9-1s-2.8-1.6-3.9-2.7-2-2.5-2.6-4c-.6-1.5-1-3.2-1-5 0-1.8.3-3.4 1-5 .6-1.6 1.5-2.9 2.6-4s2.4-2.1 3.9-2.7c1.5-.7 3.1-1 4.7-1s3.1.3 4.6.9c1.5.6 2.8 1.5 3.9 2.7 1.1 1.2 2.1 2.6 2.7 4.3.7 1.7 1 3.6 1 5.8h-20.4c.1 1.3.4 2.4 1 3.4s1.2 1.8 1.9 2.5c.8.7 1.6 1.2 2.6 1.6.9.4 1.9.5 2.9.5 1.7 0 3.2-.4 4.4-1.2 1.2-.8 2.1-1.9 2.8-3.3h4.2zm-3.8-7.1c-.3-1-.6-1.9-1.2-2.7-.5-.8-1.1-1.5-1.8-2.1-.7-.6-1.4-1-2.3-1.3-.8-.3-1.7-.5-2.6-.5-.8 0-1.7.1-2.5.4-.8.3-1.6.7-2.3 1.3s-1.3 1.3-1.9 2.1c-.5.8-.9 1.7-1.2 2.8h15.8zM-99.3 581.4c0 1.9-.3 3.7-.9 5.3-.6 1.6-1.4 3-2.5 4.1-1.1 1.1-2.4 2-3.9 2.7-1.5.6-3.2.9-5.1.9-2.9 0-5.4-.7-7.4-2.1-2.1-1.4-3.4-3.4-4-5.9h4.2c.4.9.9 1.6 1.6 2.2.6.5 1.3 1 2 1.2.7.3 1.4.5 2 .6.7.1 1.2.1 1.6.1 1.5 0 2.8-.3 3.9-.8s2-1.3 2.6-2.1c.7-.9 1.2-1.8 1.5-2.9.3-1.1.4-2.2.4-3.3v-2.5c-.9 1.2-2 2.2-3.5 3-1.4.8-3 1.2-4.8 1.2-1.8 0-3.4-.3-4.8-1-1.5-.7-2.7-1.6-3.8-2.7s-1.9-2.5-2.5-4-.9-3.2-.9-4.9c0-1.8.3-3.4.9-5 .6-1.6 1.5-2.9 2.5-4s2.4-2.1 3.8-2.7c1.5-.7 3.1-1 4.8-1 1.8 0 3.4.4 4.9 1.3 1.5.9 2.6 1.9 3.5 3.1v-3.9h3.9v23.1zm-4-10.9c0-1.3-.2-2.4-.7-3.5-.4-1.1-1-2.1-1.8-2.9-.8-.8-1.6-1.5-2.6-2s-2-.7-3.2-.7-2.2.2-3.2.7c-1 .5-1.9 1.1-2.6 2-.7.8-1.3 1.8-1.7 2.9s-.6 2.3-.6 3.5c0 1.2.2 2.4.6 3.5s1 2.1 1.7 2.9c.7.8 1.6 1.5 2.6 1.9 1 .5 2.1.7 3.2.7s2.2-.2 3.2-.7c1-.5 1.9-1.1 2.6-1.9.8-.8 1.3-1.8 1.8-2.9.5-1.1.7-2.3.7-3.5zM-88.7 554.7h-4V550h4v4.7zm0 27.9h-4v-24.2h4v24.2zM-71.4 557.7c1.7 0 3.3.3 4.8 1s2.8 1.6 3.9 2.8c1.1 1.2 1.9 2.5 2.6 4.1.6 1.6.9 3.2.9 5 0 1.8-.3 3.4-.9 4.9-.6 1.5-1.5 2.9-2.6 4s-2.4 2-3.9 2.7c-1.5.7-3.1 1-4.8 1-1.7 0-3.3-.3-4.8-1s-2.8-1.6-3.9-2.7-2-2.5-2.6-4c-.6-1.5-.9-3.2-.9-4.9 0-1.8.3-3.4.9-5 .6-1.6 1.5-2.9 2.6-4.1 1.1-1.2 2.4-2.1 3.9-2.8 1.4-.6 3-1 4.8-1zm-.1 21.8c1.1 0 2.2-.2 3.2-.7 1-.5 1.9-1.1 2.6-1.9.8-.8 1.3-1.7 1.8-2.8s.6-2.3.6-3.5c0-1.3-.2-2.4-.6-3.5s-1-2.1-1.8-2.9c-.8-.8-1.6-1.5-2.6-2s-2.1-.7-3.2-.7-2.2.2-3.2.7c-1 .5-1.9 1.1-2.6 2s-1.3 1.8-1.7 2.9-.6 2.3-.6 3.5c0 1.2.2 2.4.6 3.5s1 2 1.7 2.8c.7.8 1.6 1.4 2.6 1.9 1 .4 2.1.7 3.2.7zM-33.9 582.6h-4v-14.7c0-1.9-.5-3.4-1.5-4.6-1-1.2-2.5-1.8-4.4-1.8-.9 0-1.7.2-2.5.5s-1.5.8-2 1.3c-.6.6-1 1.2-1.3 2-.3.8-.5 1.6-.5 2.5v14.8h-4v-24.2h3.9v2.6c.8-1 1.8-1.8 3-2.4 1.2-.6 2.5-.9 4-.9s2.8.3 3.9.8c1.2.5 2.1 1.2 2.9 2.1.8.9 1.4 2 1.8 3.2.4 1.3.6 2.6.6 4.1v14.7zM-10.5 582.6c-.2-.3-.3-.8-.4-1.2-.1-.5-.2-1-.2-1.6-.9 1.1-2 1.9-3.4 2.5-1.4.6-3 .9-4.9.9-1.3 0-2.5-.1-3.6-.4-1.1-.3-2.1-.7-3-1.3-.9-.6-1.6-1.4-2.1-2.3-.5-.9-.8-2.1-.8-3.4 0-2.5.9-4.4 2.6-5.5 1.7-1.2 4.2-1.9 7.3-2 1.5-.1 2.7-.2 3.7-.4s1.8-.4 2.4-.7c.6-.3 1-.6 1.3-1 .3-.4.4-.8.4-1.3 0-1-.5-1.8-1.4-2.4-.9-.6-2.4-1-4.5-1-.6 0-1.3.1-2 .2s-1.4.3-2 .7c-.6.3-1.1.8-1.6 1.3-.4.6-.7 1.3-.8 2.2h-4.1c.2-2.4 1.2-4.4 3-5.8 1.8-1.4 4.3-2.2 7.5-2.2 3.3 0 5.7.7 7.3 2.1 1.6 1.4 2.4 3.2 2.4 5.5v13.3c0 .6.1 1.3.2 2.1s.3 1.4.5 1.9h-3.8zm-.7-13.1c-.8.7-1.9 1.2-3.2 1.4-1.3.2-2.7.4-4.1.5-1.3.1-2.4.3-3.2.5-.8.3-1.5.6-2 .9s-.8.8-1 1.3-.3 1-.3 1.5c0 .7.1 1.2.4 1.7.3.5.7.9 1.2 1.2.5.3 1.1.5 1.8.7.7.1 1.4.2 2.2.2 1 0 2-.1 3-.4 1-.2 1.8-.6 2.6-1.1.7-.5 1.4-1.1 1.8-1.9.5-.8.7-1.7.7-2.8v-3.7zM3.6 582.6h-4v-35h4v35zM36 553.7v28.8h-4v-28.8H21.8v-3.9h24.5v3.9H36zM60.9 557.7c1.7 0 3.3.3 4.8 1s2.8 1.6 3.9 2.8c1.1 1.2 1.9 2.5 2.6 4.1.6 1.6.9 3.2.9 5 0 1.8-.3 3.4-.9 4.9-.6 1.5-1.5 2.9-2.6 4s-2.4 2-3.9 2.7c-1.5.7-3.1 1-4.8 1-1.7 0-3.3-.3-4.8-1s-2.8-1.6-3.9-2.7-2-2.5-2.6-4c-.6-1.5-.9-3.2-.9-4.9 0-1.8.3-3.4.9-5 .6-1.6 1.5-2.9 2.6-4.1 1.1-1.2 2.4-2.1 3.9-2.8 1.4-.6 3-1 4.8-1zm-.1 21.8c1.1 0 2.2-.2 3.2-.7 1-.5 1.9-1.1 2.6-1.9.8-.8 1.3-1.7 1.8-2.8s.6-2.3.6-3.5c0-1.3-.2-2.4-.6-3.5s-1-2.1-1.8-2.9c-.8-.8-1.6-1.5-2.6-2s-2.1-.7-3.2-.7-2.2.2-3.2.7c-1 .5-1.9 1.1-2.6 2s-1.3 1.8-1.7 2.9-.6 2.3-.6 3.5c0 1.2.2 2.4.6 3.5s1 2 1.7 2.8c.7.8 1.6 1.4 2.6 1.9 1.1.4 2.1.7 3.2.7zM98.3 582.6h-3.9V580c-.8 1-1.8 1.8-3 2.3-1.2.6-2.5.8-4 .8s-2.8-.3-3.9-.8c-1.2-.5-2.1-1.2-2.9-2.1-.8-.9-1.4-2-1.8-3.2-.4-1.2-.6-2.6-.6-4.1v-14.6h4v14.8c0 1.9.5 3.5 1.5 4.7 1 1.2 2.5 1.7 4.4 1.7.9 0 1.7-.2 2.5-.5s1.4-.8 2-1.3c.6-.6 1-1.2 1.3-2 .3-.8.5-1.6.5-2.5v-14.9h4v24.3zM116.9 561.7c-1-.1-2 0-3 .3-.9.3-1.8.7-2.5 1.2-.7.6-1.3 1.3-1.7 2.2-.4.9-.6 1.9-.6 3.1v14h-4v-24.2h3.9v2.7c.5-.7 1-1.2 1.6-1.7.6-.5 1.3-.8 2-1.1.7-.3 1.4-.4 2.2-.5.7-.1 1.4-.1 2.1 0v4zM125.4 554.7h-4V550h4v4.7zm0 27.9h-4v-24.2h4v24.2zM151.1 575.3c0 1.2-.2 2.3-.7 3.3-.5 1-1.2 1.8-2 2.5s-1.9 1.2-3.1 1.6c-1.2.4-2.6.6-4 .6-1.5 0-2.8-.2-4.1-.6-1.3-.4-2.3-.9-3.3-1.6s-1.7-1.6-2.3-2.6-1-2.2-1.1-3.5h4c.3 1.4 1 2.5 2.3 3.3 1.3.8 2.8 1.2 4.5 1.2 1.9 0 3.4-.4 4.4-1.2 1.1-.8 1.6-1.7 1.6-2.8 0-.4-.1-.8-.2-1.2-.1-.4-.4-.7-.9-1-.5-.3-1.1-.6-2-.9-.9-.3-2.1-.5-3.5-.7-1.5-.2-2.8-.5-3.9-.8-1.2-.3-2.1-.7-3-1.2-.8-.5-1.4-1.2-1.9-2-.4-.8-.7-1.7-.7-2.9 0-.9.2-1.7.6-2.6.4-.8 1-1.6 1.7-2.3s1.8-1.2 3-1.7c1.2-.4 2.6-.6 4.2-.6 2.8 0 5.1.7 6.9 2s2.8 3.2 3 5.6h-4c-.3-1.3-.9-2.3-2-2.9-1.1-.6-2.3-1-3.8-1-1.6 0-2.9.3-3.9 1s-1.6 1.5-1.6 2.4c0 .4.1.8.3 1.1.2.3.5.6 1 .8.5.2 1.1.4 1.9.6.8.2 1.8.4 3 .6 1.3.2 2.6.5 3.8.8 1.2.3 2.2.7 3.1 1.2.9.5 1.6 1.2 2.1 2.1.3.9.6 2 .6 3.4zM190.3 582.6h-4v-15.1c0-1.9-.4-3.4-1.3-4.4s-2.3-1.6-4.1-1.6c-.8 0-1.6.2-2.3.5-.7.3-1.3.8-1.8 1.3-.5.6-.9 1.2-1.2 2-.3.8-.4 1.6-.4 2.5v14.8h-4v-15.1c0-1.9-.5-3.4-1.4-4.4s-2.3-1.6-4.1-1.6c-.8 0-1.6.2-2.3.5s-1.3.8-1.8 1.3c-.5.6-.9 1.2-1.2 2s-.4 1.6-.4 2.5v14.8h-4v-24.2h3.9v2.6c.8-1 1.7-1.8 2.8-2.4s2.3-.9 3.7-.9c1.7 0 3.2.4 4.5 1.1 1.3.7 2.3 1.7 3 3.1.8-1.3 1.8-2.3 3-3 1.3-.8 2.8-1.1 4.5-1.1 2.8 0 5 .9 6.6 2.6s2.4 4.2 2.4 7.2v15zM215.5 573.1l-3.5 9.5h-4.3L220 550h4.5l12.1 32.6h-4.5l-3.4-9.5h-13.2zm6.7-18.3l-5.3 14.5h10.5l-5.2-14.5zM260.4 582.6h-3.9V580c-.8 1-1.8 1.8-3 2.3-1.2.6-2.5.8-4 .8s-2.8-.3-3.9-.8c-1.2-.5-2.1-1.2-2.9-2.1-.8-.9-1.4-2-1.8-3.2-.4-1.2-.6-2.6-.6-4.1v-14.6h4v14.8c0 1.9.5 3.5 1.5 4.7 1 1.2 2.5 1.7 4.4 1.7.9 0 1.7-.2 2.5-.5s1.4-.8 2-1.3c.6-.6 1-1.2 1.3-2 .3-.8.5-1.6.5-2.5v-14.9h4v24.3zM277.5 582.6c-1.4.2-2.7.1-3.9-.2-1.2-.3-2.2-.9-3-1.6-.8-.8-1.5-1.7-2-2.9s-.7-2.5-.7-4.1v-11.6h-3.3v-3.9h3.3v-5.2h4v5.2h5.5v3.9h-5.5v11.6c0 1.1.1 1.9.4 2.6.3.7.7 1.2 1.2 1.6s1.1.7 1.8.8c.7.1 1.4.2 2.1.1v3.7zM302.2 582.6h-4v-14.7c0-1.9-.5-3.4-1.5-4.6-1-1.2-2.5-1.8-4.4-1.8-.9 0-1.7.2-2.5.5s-1.5.8-2 1.3c-.6.6-1 1.2-1.3 2s-.5 1.6-.5 2.5v14.8h-4v-35h4v13.2c.8-.9 1.8-1.7 3-2.2 1.2-.5 2.5-.8 3.9-.8 1.5 0 2.8.3 3.9.8 1.2.5 2.1 1.2 2.9 2.1.8.9 1.4 2 1.8 3.2.4 1.3.6 2.6.6 4.1v14.6zM319.4 557.7c1.7 0 3.3.3 4.8 1s2.8 1.6 3.9 2.8 1.9 2.5 2.6 4.1.9 3.2.9 5c0 1.8-.3 3.4-.9 4.9s-1.5 2.9-2.6 4-2.4 2-3.9 2.7c-1.5.7-3.1 1-4.8 1-1.7 0-3.3-.3-4.8-1s-2.8-1.6-3.9-2.7-2-2.5-2.6-4c-.6-1.5-.9-3.2-.9-4.9 0-1.8.3-3.4.9-5 .6-1.6 1.5-2.9 2.6-4.1 1.1-1.2 2.4-2.1 3.9-2.8 1.4-.6 3-1 4.8-1zm-.1 21.8c1.1 0 2.2-.2 3.2-.7 1-.5 1.9-1.1 2.6-1.9.8-.8 1.3-1.7 1.8-2.8s.6-2.3.6-3.5c0-1.3-.2-2.4-.6-3.5s-1-2.1-1.8-2.9-1.6-1.5-2.6-2-2-.7-3.2-.7c-1.1 0-2.2.2-3.2.7-1 .5-1.9 1.1-2.6 2-.7.8-1.3 1.8-1.7 2.9-.4 1.1-.6 2.3-.6 3.5 0 1.2.2 2.4.6 3.5.4 1.1 1 2 1.7 2.8.7.8 1.6 1.4 2.6 1.9 1 .4 2.1.7 3.2.7zM348.4 561.7c-1-.1-2 0-3 .3-.9.3-1.8.7-2.5 1.2-.7.6-1.3 1.3-1.7 2.2-.4.9-.6 1.9-.6 3.1v14h-4v-24.2h3.9v2.7c.5-.7 1-1.2 1.6-1.7.6-.5 1.3-.8 2-1.1.7-.3 1.4-.4 2.2-.5.7-.1 1.4-.1 2.1 0v4zM356.9 554.7h-4V550h4v4.7zm0 27.9h-4v-24.2h4v24.2zM374.1 582.6c-1.4.2-2.7.1-3.9-.2-1.2-.3-2.2-.9-3-1.6-.8-.8-1.5-1.7-2-2.9s-.7-2.5-.7-4.1v-11.6h-3.3v-3.9h3.3v-5.2h4v5.2h5.5v3.9h-5.5v11.6c0 1.1.1 1.9.4 2.6.3.7.7 1.2 1.2 1.6.5.4 1.1.7 1.8.8.7.1 1.4.2 2.1.1v3.7zM387.3 587.2c-.8 2.3-2 3.9-3.4 4.8-1.4.9-3.4 1.3-5.8 1v-3.7c.8.1 1.5 0 2-.1.6-.1 1.1-.3 1.5-.6s.8-.7 1.1-1.1c.3-.5.6-1.1.8-1.8l1.3-3.4-9.3-24.1h4.3l7 19.3 6.9-19.3h4.3l-10.7 29z"/>
</svg>
